<svg width="24" height="25" viewBox="0 0 24 25" fill="none" xmlns="http://www.w3.org/2000/svg">
<path d="M10.434 8.74969V10.4021H9.22437V12.4217H10.434V18.4253H12.9204V12.4217H14.5884C14.5884 12.4217 14.7456 11.4533 14.8212 10.3937H12.93V9.01369C12.93 8.80609 13.2012 8.52889 13.47 8.52889H14.8236V6.42529H12.9816C10.3728 6.42529 10.434 8.44729 10.434 8.74969Z" fill="url(#paint0_linear_501_39)"/>
<path d="M4.8 2.82529C4.16348 2.82529 3.55303 3.07815 3.10294 3.52824C2.65286 3.97832 2.4 4.58877 2.4 5.22529V19.6253C2.4 20.2618 2.65286 20.8723 3.10294 21.3223C3.55303 21.7724 4.16348 22.0253 4.8 22.0253H19.2C19.8365 22.0253 20.447 21.7724 20.8971 21.3223C21.3471 20.8723 21.6 20.2618 21.6 19.6253V5.22529C21.6 4.58877 21.3471 3.97832 20.8971 3.52824C20.447 3.07815 19.8365 2.82529 19.2 2.82529H4.8ZM4.8 0.425293H19.2C20.473 0.425293 21.6939 0.931006 22.5941 1.83118C23.4943 2.73136 24 3.95225 24 5.22529V19.6253C24 20.8983 23.4943 22.1192 22.5941 23.0194C21.6939 23.9196 20.473 24.4253 19.2 24.4253H4.8C3.52696 24.4253 2.30606 23.9196 1.40589 23.0194C0.505713 22.1192 0 20.8983 0 19.6253V5.22529C0 3.95225 0.505713 2.73136 1.40589 1.83118C2.30606 0.931006 3.52696 0.425293 4.8 0.425293V0.425293Z" fill="url(#paint1_linear_501_39)"/>
<defs>
<linearGradient id="paint0_linear_501_39" x1="12.024" y1="6.42529" x2="12.024" y2="18.4253" gradientUnits="userSpaceOnUse">
<stop stop-color="#C70039"/>
<stop offset="1" stop-color="#FF5733"/>
</linearGradient>
<linearGradient id="paint1_linear_501_39" x1="12" y1="0.425293" x2="12" y2="24.4253" gradientUnits="userSpaceOnUse">
<stop stop-color="#C70039"/>
<stop offset="1" stop-color="#FF5733"/>
</linearGradient>
</defs>
</svg>
