<svg width="21" height="20" viewBox="0 0 21 20" fill="none" xmlns="http://www.w3.org/2000/svg">
<rect x="0.227051" width="20" height="20" rx="10" fill="black" fill-opacity="0.5"/>
<path opacity="0.99" fill-rule="evenodd" clip-rule="evenodd" d="M10.2271 0C4.70205 0 0.227051 4.58819 0.227051 10.2529C0.227051 14.7899 3.08955 18.6219 7.06455 19.9804C7.56455 20.0701 7.75205 19.7625 7.75205 19.4934C7.75205 19.2499 7.73955 18.4425 7.73955 17.5838C5.22705 18.058 4.57705 16.9558 4.37705 16.3791C4.26455 16.0843 3.77705 15.1743 3.35205 14.9308C3.00205 14.7386 2.50205 14.2644 3.33955 14.2516C4.12705 14.2388 4.68955 14.9949 4.87705 15.3025C5.77705 16.8533 7.21455 16.4175 7.78955 16.1484C7.87705 15.4819 8.13955 15.0334 8.42705 14.777C6.20205 14.5207 3.87705 13.6364 3.87705 9.71466C3.87705 8.59965 4.26455 7.67689 4.90205 6.95918C4.80205 6.70286 4.45205 5.65193 5.00205 4.24215C5.00205 4.24215 5.83955 3.97301 7.75205 5.29308C8.55205 5.06239 9.40205 4.94704 10.2521 4.94704C11.1021 4.94704 11.9521 5.06239 12.7521 5.29308C14.6646 3.9602 15.5021 4.24215 15.5021 4.24215C16.0521 5.65193 15.7021 6.70286 15.6021 6.95918C16.2396 7.67689 16.6271 8.58684 16.6271 9.71466C16.6271 13.6492 14.2896 14.5207 12.0646 14.777C12.4271 15.0975 12.7396 15.7126 12.7396 16.6738C12.7396 18.0452 12.7271 19.1474 12.7271 19.4934C12.7271 19.7625 12.9146 20.0829 13.4146 19.9804C15.3997 19.2932 17.1247 17.9851 18.3468 16.2401C19.5688 14.4951 20.2265 12.4012 20.2271 10.2529C20.2271 4.58819 15.7521 0 10.2271 0Z" fill="url(#paint0_linear_943_44)"/>
<defs>
<linearGradient id="paint0_linear_943_44" x1="0.227051" y1="14.5314" x2="20.2321" y2="14.4387" gradientUnits="userSpaceOnUse">
<stop stop-color="#C70039"/>
<stop offset="1" stop-color="#FF5733"/>
</linearGradient>
</defs>
</svg>
