<svg width="24" height="25" viewBox="0 0 24 25" fill="none" xmlns="http://www.w3.org/2000/svg">
<path d="M4.8 2.82529C4.16348 2.82529 3.55303 3.07815 3.10294 3.52824C2.65286 3.97832 2.4 4.58877 2.4 5.22529V19.6253C2.4 20.2618 2.65286 20.8723 3.10294 21.3223C3.55303 21.7724 4.16348 22.0253 4.8 22.0253H19.2C19.8365 22.0253 20.447 21.7724 20.8971 21.3223C21.3471 20.8723 21.6 20.2618 21.6 19.6253V5.22529C21.6 4.58877 21.3471 3.97832 20.8971 3.52824C20.447 3.07815 19.8365 2.82529 19.2 2.82529H4.8ZM4.8 0.425293H19.2C20.473 0.425293 21.6939 0.931006 22.5941 1.83118C23.4943 2.73136 24 3.95225 24 5.22529V19.6253C24 20.8983 23.4943 22.1192 22.5941 23.0194C21.6939 23.9196 20.473 24.4253 19.2 24.4253H4.8C3.52696 24.4253 2.30606 23.9196 1.40589 23.0194C0.505713 22.1192 0 20.8983 0 19.6253V5.22529C0 3.95225 0.505713 2.73136 1.40589 1.83118C2.30606 0.931006 3.52696 0.425293 4.8 0.425293V0.425293Z" fill="url(#paint0_linear_501_45)"/>
<path d="M12.0111 7.47852C10.9143 7.47852 9.84206 7.80377 8.93005 8.41315C8.01805 9.02253 7.30723 9.88867 6.88748 10.902C6.46774 11.9154 6.35791 13.0305 6.5719 14.1062C6.78588 15.182 7.31407 16.1702 8.08966 16.9458C8.86526 17.7214 9.85342 18.2496 10.9292 18.4636C12.005 18.6775 13.1201 18.5677 14.1334 18.148C15.1468 17.7282 16.0129 17.0174 16.6223 16.1054C17.2317 15.1934 17.5569 14.1212 17.5569 13.0243C17.5569 11.5535 16.9726 10.1429 15.9326 9.10284C14.8926 8.0628 13.482 7.47852 12.0111 7.47852ZM12.0111 16.6243C11.2991 16.6243 10.6031 16.4132 10.0111 16.0176C9.41907 15.622 8.95764 15.0598 8.68517 14.402C8.41269 13.7442 8.3414 13.0203 8.48031 12.322C8.61921 11.6237 8.96208 10.9822 9.46555 10.4787C9.96902 9.97526 10.6105 9.6324 11.3088 9.49349C12.0071 9.35458 12.731 9.42587 13.3888 9.69835C14.0466 9.97082 14.6089 10.4322 15.0044 11.0243C15.4 11.6163 15.6111 12.3123 15.6111 13.0243C15.6111 13.9791 15.2318 14.8948 14.5567 15.5699C13.8816 16.245 12.9659 16.6243 12.0111 16.6243Z" fill="#DF0B0B"/>
<path d="M17.753 7.13155C18.4688 7.13155 19.049 6.55131 19.049 5.83555C19.049 5.11979 18.4688 4.53955 17.753 4.53955C17.0373 4.53955 16.457 5.11979 16.457 5.83555C16.457 6.55131 17.0373 7.13155 17.753 7.13155Z" fill="#DC0505"/>
<defs>
<linearGradient id="paint0_linear_501_45" x1="12" y1="0.425293" x2="12" y2="24.4253" gradientUnits="userSpaceOnUse">
<stop stop-color="#C70039"/>
<stop offset="1" stop-color="#FF5733"/>
</linearGradient>
</defs>
</svg>
