<svg width="21" height="20" viewBox="0 0 21 20" fill="none" xmlns="http://www.w3.org/2000/svg">
<rect x="0.375244" width="20" height="20" rx="7" fill="black" fill-opacity="0.5"/>
<path d="M10.3726 6.66525C8.53635 6.66525 7.03786 8.16376 7.03786 10C7.03786 11.8362 8.53635 13.3348 10.3726 13.3348C12.2088 13.3348 13.7072 11.8362 13.7072 10C13.7072 8.16376 12.2088 6.66525 10.3726 6.66525ZM20.3741 10C20.3741 8.61907 20.3866 7.25064 20.3091 5.87221C20.2315 4.27113 19.8663 2.85017 18.6955 1.67938C17.5223 0.506086 16.1038 0.14334 14.5028 0.065788C13.1219 -0.0117644 11.7535 0.000744113 10.3751 0.000744113C8.99415 0.000744113 7.62575 -0.0117644 6.24735 0.065788C4.64629 0.14334 3.22536 0.508587 2.05459 1.67938C0.88132 2.85267 0.518582 4.27113 0.441031 5.87221C0.36348 7.25314 0.375988 8.62157 0.375988 10C0.375988 11.3784 0.36348 12.7494 0.441031 14.1278C0.518582 15.7289 0.883822 17.1498 2.05459 18.3206C3.22786 19.4939 4.64629 19.8567 6.24735 19.9342C7.62825 20.0118 8.99665 19.9993 10.3751 19.9993C11.756 19.9993 13.1244 20.0118 14.5028 19.9342C16.1038 19.8567 17.5248 19.4914 18.6955 18.3206C19.8688 17.1473 20.2315 15.7289 20.3091 14.1278C20.3891 12.7494 20.3741 11.3809 20.3741 10ZM10.3726 15.131C7.53319 15.131 5.24168 12.8394 5.24168 10C5.24168 7.16058 7.53319 4.86903 10.3726 4.86903C13.2119 4.86903 15.5034 7.16058 15.5034 10C15.5034 12.8394 13.2119 15.131 10.3726 15.131ZM15.7136 5.8572C15.0506 5.8572 14.5153 5.32184 14.5153 4.65889C14.5153 3.99594 15.0506 3.46058 15.7136 3.46058C16.3765 3.46058 16.9119 3.99594 16.9119 4.65889C16.9121 4.81631 16.8812 4.97222 16.821 5.1177C16.7609 5.26317 16.6726 5.39535 16.5613 5.50666C16.45 5.61798 16.3178 5.70624 16.1724 5.76639C16.0269 5.82654 15.871 5.8574 15.7136 5.8572Z" fill="url(#paint0_linear_943_45)"/>
<defs>
<linearGradient id="paint0_linear_943_45" x1="0.375244" y1="14.5314" x2="20.3803" y2="14.4387" gradientUnits="userSpaceOnUse">
<stop stop-color="#C70039"/>
<stop offset="1" stop-color="#FF5733"/>
</linearGradient>
</defs>
</svg>
