<svg width="24" height="25" viewBox="0 0 24 25" fill="none" xmlns="http://www.w3.org/2000/svg">
<path d="M18 13.7818V18.2182H15.4284V14.0782C15.4284 13.039 15.0564 12.3298 14.1252 12.3298C13.4148 12.3298 12.9912 12.8074 12.8052 13.2706C12.738 13.4362 12.72 13.6666 12.72 13.897V18.2182H10.1472C10.1472 18.2182 10.182 11.2078 10.1472 10.4818H12.72V11.5774L12.7032 11.6026H12.72V11.5786C13.062 11.0506 13.6716 10.2994 15.0384 10.2994C16.7304 10.2994 18 11.4058 18 13.7818ZM7.4556 6.75098C6.576 6.75098 6 7.32938 6 8.08778C6 8.83178 6.5592 9.42578 7.422 9.42578H7.4388C8.3364 9.42578 8.8944 8.83058 8.8944 8.08778C8.8776 7.32938 8.3364 6.75098 7.4556 6.75098ZM6.1524 18.2182H8.7252V10.4818H6.1524V18.2182Z" fill="url(#paint0_linear_501_42)"/>
<path d="M4.8 2.82529C4.16348 2.82529 3.55303 3.07815 3.10294 3.52824C2.65286 3.97832 2.4 4.58877 2.4 5.22529V19.6253C2.4 20.2618 2.65286 20.8723 3.10294 21.3223C3.55303 21.7724 4.16348 22.0253 4.8 22.0253H19.2C19.8365 22.0253 20.447 21.7724 20.8971 21.3223C21.3471 20.8723 21.6 20.2618 21.6 19.6253V5.22529C21.6 4.58877 21.3471 3.97832 20.8971 3.52824C20.447 3.07815 19.8365 2.82529 19.2 2.82529H4.8ZM4.8 0.425293H19.2C20.473 0.425293 21.6939 0.931006 22.5941 1.83118C23.4943 2.73136 24 3.95225 24 5.22529V19.6253C24 20.8983 23.4943 22.1192 22.5941 23.0194C21.6939 23.9196 20.473 24.4253 19.2 24.4253H4.8C3.52696 24.4253 2.30606 23.9196 1.40589 23.0194C0.505713 22.1192 0 20.8983 0 19.6253V5.22529C0 3.95225 0.505713 2.73136 1.40589 1.83118C2.30606 0.931006 3.52696 0.425293 4.8 0.425293V0.425293Z" fill="url(#paint1_linear_501_42)"/>
<defs>
<linearGradient id="paint0_linear_501_42" x1="12" y1="6.75098" x2="12" y2="18.2182" gradientUnits="userSpaceOnUse">
<stop stop-color="#C70039"/>
<stop offset="1" stop-color="#FF5733"/>
</linearGradient>
<linearGradient id="paint1_linear_501_42" x1="12" y1="0.425293" x2="12" y2="24.4253" gradientUnits="userSpaceOnUse">
<stop stop-color="#C70039"/>
<stop offset="1" stop-color="#FF5733"/>
</linearGradient>
</defs>
</svg>
