<svg width="548" height="169" viewBox="0 0 548 169" fill="none" xmlns="http://www.w3.org/2000/svg">
<g filter="url(#filter0_d_850_58)">
<path d="M4.81221 142.119H7.57221V156.119H4.81221V142.119ZM29.9038 148.599V149.679C29.9038 151.679 29.2638 153.299 27.9838 154.539C26.7038 155.779 25.0504 156.399 23.0238 156.399C20.8638 156.399 19.0704 155.699 17.6438 154.299C16.2304 152.886 15.5238 151.166 15.5238 149.139C15.5238 147.099 16.2238 145.372 17.6238 143.959C19.0371 142.546 20.7838 141.839 22.8638 141.839C24.1704 141.839 25.3638 142.139 26.4438 142.739C27.5238 143.326 28.3638 144.112 28.9638 145.099L26.6038 146.459C26.2704 145.886 25.7638 145.419 25.0838 145.059C24.4171 144.699 23.6704 144.519 22.8438 144.519C21.5104 144.519 20.4104 144.959 19.5438 145.839C18.6904 146.706 18.2638 147.806 18.2638 149.139C18.2638 150.459 18.6971 151.552 19.5638 152.419C20.4438 153.272 21.6038 153.699 23.0438 153.699C24.1104 153.699 24.9904 153.466 25.6838 152.999C26.3904 152.519 26.8704 151.866 27.1238 151.039H22.8838V148.599H29.9038ZM45.9669 142.119H48.7269V156.119H46.6269L40.6269 147.559V156.119H37.8669V142.119H39.9669L45.9669 150.659V142.119ZM57.3239 142.119H60.0839V156.119H57.3239V142.119ZM77.9355 142.119V144.759H74.1555V156.119H71.3955V144.759H67.6355V142.119H77.9355ZM88.2363 153.479H94.1363V156.119H85.4763V142.119H94.0363V144.759H88.2363V147.739H93.5363V150.339H88.2363V153.479ZM122.342 142.119V144.759H118.562V156.119H115.802V144.759H112.042V142.119H122.342ZM137.843 142.119H140.583V156.119H137.843V150.319H132.643V156.119H129.883V142.119H132.643V147.679H137.843V142.119ZM151.943 153.479H157.843V156.119H149.183V142.119H157.743V144.759H151.943V147.739H157.243V150.339H151.943V153.479ZM181.569 156.399C180.182 156.399 179.015 156.092 178.069 155.479C177.122 154.852 176.455 154.006 176.069 152.939L178.429 151.559C178.975 152.986 180.049 153.699 181.649 153.699C182.422 153.699 182.989 153.559 183.349 153.279C183.709 152.999 183.889 152.646 183.889 152.219C183.889 151.726 183.669 151.346 183.229 151.079C182.789 150.799 182.002 150.499 180.869 150.179C180.242 149.992 179.709 149.806 179.269 149.619C178.842 149.432 178.409 149.186 177.969 148.879C177.542 148.559 177.215 148.159 176.989 147.679C176.762 147.199 176.649 146.639 176.649 145.999C176.649 144.732 177.095 143.726 177.989 142.979C178.895 142.219 179.982 141.839 181.249 141.839C182.382 141.839 183.375 142.119 184.229 142.679C185.095 143.226 185.769 143.992 186.249 144.979L183.929 146.319C183.369 145.119 182.475 144.519 181.249 144.519C180.675 144.519 180.222 144.652 179.889 144.919C179.569 145.172 179.409 145.506 179.409 145.919C179.409 146.359 179.589 146.719 179.949 146.999C180.322 147.266 181.029 147.559 182.069 147.879C182.495 148.012 182.815 148.119 183.029 148.199C183.255 148.266 183.555 148.379 183.929 148.539C184.315 148.686 184.609 148.826 184.809 148.959C185.022 149.092 185.262 149.272 185.529 149.499C185.795 149.726 185.995 149.959 186.129 150.199C186.275 150.439 186.395 150.732 186.489 151.079C186.595 151.412 186.649 151.779 186.649 152.179C186.649 153.472 186.175 154.499 185.229 155.259C184.295 156.019 183.075 156.399 181.569 156.399ZM199.571 142.119C200.918 142.119 202.051 142.572 202.971 143.479C203.891 144.386 204.351 145.499 204.351 146.819C204.351 148.139 203.891 149.252 202.971 150.159C202.051 151.066 200.918 151.519 199.571 151.519H197.111V156.119H194.351V142.119H199.571ZM199.571 148.939C200.158 148.939 200.645 148.739 201.031 148.339C201.418 147.926 201.611 147.419 201.611 146.819C201.611 146.206 201.418 145.699 201.031 145.299C200.645 144.899 200.158 144.699 199.571 144.699H197.111V148.939H199.571ZM219.722 156.119L218.882 153.599H213.302L212.462 156.119H209.482L214.382 142.119H217.802L222.722 156.119H219.722ZM214.182 151.019H218.022L216.102 145.299L214.182 151.019ZM237.762 156.119L234.942 151.259H232.842V156.119H230.082V142.119H235.682C236.975 142.119 238.075 142.572 238.982 143.479C239.888 144.386 240.342 145.479 240.342 146.759C240.342 147.626 240.095 148.432 239.602 149.179C239.108 149.912 238.455 150.466 237.642 150.839L240.742 156.119H237.762ZM232.842 144.699V148.839H235.682C236.202 148.839 236.648 148.639 237.022 148.239C237.395 147.826 237.582 147.332 237.582 146.759C237.582 146.186 237.395 145.699 237.022 145.299C236.648 144.899 236.202 144.699 235.682 144.699H232.842ZM259.307 156.119H256.127L251.127 149.559V156.119H248.367V142.119H251.127V148.299L255.927 142.119H259.107L253.927 148.919L259.307 156.119ZM289.452 154.299C288.038 155.699 286.318 156.399 284.292 156.399C282.265 156.399 280.545 155.699 279.132 154.299C277.732 152.886 277.032 151.159 277.032 149.119C277.032 147.079 277.732 145.359 279.132 143.959C280.545 142.546 282.265 141.839 284.292 141.839C286.318 141.839 288.038 142.546 289.452 143.959C290.865 145.359 291.572 147.079 291.572 149.119C291.572 151.159 290.865 152.886 289.452 154.299ZM281.072 152.419C281.938 153.272 283.012 153.699 284.292 153.699C285.572 153.699 286.645 153.272 287.512 152.419C288.378 151.552 288.812 150.452 288.812 149.119C288.812 147.786 288.378 146.686 287.512 145.819C286.645 144.952 285.572 144.519 284.292 144.519C283.012 144.519 281.938 144.952 281.072 145.819C280.205 146.686 279.772 147.786 279.772 149.119C279.772 150.452 280.205 151.552 281.072 152.419ZM307.871 144.759H302.271V148.079H307.711V150.719H302.271V156.119H299.511V142.119H307.871V144.759ZM332.443 142.119C334.363 142.119 335.963 142.792 337.243 144.139C338.536 145.486 339.183 147.146 339.183 149.119C339.183 151.092 338.536 152.752 337.243 154.099C335.963 155.446 334.363 156.119 332.443 156.119H326.883V142.119H332.443ZM332.443 153.479C333.656 153.479 334.643 153.079 335.403 152.279C336.163 151.466 336.543 150.412 336.543 149.119C336.543 147.826 336.163 146.779 335.403 145.979C334.643 145.166 333.656 144.759 332.443 144.759H329.643V153.479H332.443ZM349.9 153.479H355.8V156.119H347.14V142.119H355.7V144.759H349.9V147.739H355.2V150.339H349.9V153.479ZM367.206 156.119L362.506 142.119H365.506L368.926 152.879L372.326 142.119H375.346L370.626 156.119H367.206ZM385.455 153.479H391.355V156.119H382.695V142.119H391.255V144.759H385.455V147.739H390.755V150.339H385.455V153.479ZM402.06 153.479H407.4V156.119H399.3V142.119H402.06V153.479ZM420.188 142.119C421.535 142.119 422.668 142.572 423.588 143.479C424.508 144.386 424.968 145.499 424.968 146.819C424.968 148.139 424.508 149.252 423.588 150.159C422.668 151.066 421.535 151.519 420.188 151.519H417.728V156.119H414.968V142.119H420.188ZM420.188 148.939C420.775 148.939 421.262 148.739 421.648 148.339C422.035 147.926 422.228 147.419 422.228 146.819C422.228 146.206 422.035 145.699 421.648 145.299C421.262 144.899 420.775 144.699 420.188 144.699H417.728V148.939H420.188ZM444.448 154.299C443.034 155.699 441.314 156.399 439.288 156.399C437.261 156.399 435.541 155.699 434.128 154.299C432.728 152.886 432.028 151.159 432.028 149.119C432.028 147.079 432.728 145.359 434.128 143.959C435.541 142.546 437.261 141.839 439.288 141.839C441.314 141.839 443.034 142.546 444.448 143.959C445.861 145.359 446.568 147.079 446.568 149.119C446.568 151.159 445.861 152.886 444.448 154.299ZM436.068 152.419C436.934 153.272 438.008 153.699 439.288 153.699C440.568 153.699 441.641 153.272 442.508 152.419C443.374 151.552 443.808 150.452 443.808 149.119C443.808 147.786 443.374 146.686 442.508 145.819C441.641 144.952 440.568 144.519 439.288 144.519C438.008 144.519 436.934 144.952 436.068 145.819C435.201 146.686 434.768 147.786 434.768 149.119C434.768 150.452 435.201 151.552 436.068 152.419ZM468.208 142.119V156.119H465.468V147.039L461.528 153.539H461.208L457.268 147.059V156.119H454.508V142.119H457.348L461.368 148.739L465.368 142.119H468.208ZM479.576 153.479H485.476V156.119H476.816V142.119H485.376V144.759H479.576V147.739H484.876V150.339H479.576V153.479ZM501.522 142.119H504.282V156.119H502.182L496.182 147.559V156.119H493.422V142.119H495.522L501.522 150.659V142.119ZM522.139 142.119V144.759H518.359V156.119H515.599V144.759H511.839V142.119H522.139ZM540.679 160.119V141.719H543.259V160.119H540.679Z" fill="white"/>
</g>
<path d="M249.745 100.001C247.796 100.001 245.588 99.7714 243.123 99.3128C240.715 98.9114 238.364 98.2808 236.071 97.4208C233.835 96.5608 231.972 95.5001 230.481 94.2388L233.061 84.5208C235.01 87.1008 237.218 89.0788 239.683 90.4548C242.148 91.7734 244.671 92.6621 247.251 93.1208C249.831 93.5221 252.239 93.6654 254.475 93.5508C256.195 92.6908 257.428 91.5154 258.173 90.0248C258.976 88.5341 259.377 87.0434 259.377 85.5528C259.377 83.6608 258.804 82.0554 257.657 80.7368C256.568 79.4181 255.077 78.2428 253.185 77.2108C251.293 76.1788 249.086 75.0608 246.563 73.8568C244.04 72.6528 241.575 71.3341 239.167 69.9008C236.759 68.4674 234.724 66.6901 233.061 64.5688C231.456 62.3901 230.653 59.7241 230.653 56.5708C230.653 53.1308 231.628 50.2068 233.577 47.7988C235.526 45.3334 238.106 43.4701 241.317 42.2088C244.528 40.9474 247.996 40.3168 251.723 40.3168C253.672 40.3168 255.593 40.4601 257.485 40.7468C259.434 41.0334 261.24 41.4061 262.903 41.8648C264.566 42.2661 266.028 42.6961 267.289 43.1548L262.817 52.7008C260.409 50.1208 257.6 48.4008 254.389 47.5408C251.236 46.6808 248.082 46.3941 244.929 46.6808C243.553 47.4834 242.521 48.5728 241.833 49.9488C241.202 51.3248 240.887 52.7008 240.887 54.0768C240.887 55.8541 241.46 57.3734 242.607 58.6348C243.754 59.8388 245.302 60.9568 247.251 61.9888C249.258 63.0208 251.494 64.1101 253.959 65.2568C256.596 66.5181 259.119 67.8941 261.527 69.3848C263.992 70.8754 265.999 72.7101 267.547 74.8888C269.095 77.0101 269.869 79.7334 269.869 83.0588C269.869 86.6708 268.923 89.7381 267.031 92.2608C265.139 94.7834 262.674 96.7041 259.635 98.0228C256.596 99.3414 253.3 100.001 249.745 100.001ZM240.629 94.4968L230.481 94.2388C230.424 93.2068 230.395 91.8308 230.395 90.1108C230.452 88.3334 230.567 86.4701 230.739 84.5208C230.968 82.5141 231.226 80.6794 231.513 79.0168H236.931L240.629 94.4968ZM260.409 58.3768L257.829 44.5308L267.289 43.1548C267.404 44.3014 267.404 45.7348 267.289 47.4548C267.232 49.1748 267.117 50.9808 266.945 52.8728C266.773 54.7648 266.515 56.5994 266.171 58.3768H260.409ZM296.542 99.4848C294.249 99.4848 291.812 99.1694 289.232 98.5388C286.71 97.9654 284.216 97.1341 281.75 96.0448L286.308 88.7348C287.111 89.5374 288.229 90.3688 289.662 91.2288C291.153 92.0314 292.902 92.6334 294.908 93.0348C296.972 93.4361 299.18 93.4934 301.53 93.2068C303.594 91.7734 305.171 89.6808 306.26 86.9288C307.407 84.1768 307.98 81.3388 307.98 78.4148C307.98 76.0068 307.579 73.7421 306.776 71.6208C305.974 69.4994 304.856 67.7794 303.422 66.4608C301.989 65.1421 300.269 64.4828 298.262 64.4828C296.428 64.4828 294.507 65.0274 292.5 66.1168C290.551 67.1488 288.573 68.3528 286.566 69.7288L285.792 66.0308L299.638 56.6568C302.505 56.0261 305.085 56.1694 307.378 57.0868C309.729 57.9468 311.736 59.3514 313.398 61.3008C315.118 63.1928 316.408 65.4574 317.268 68.0948C318.186 70.6748 318.644 73.4554 318.644 76.4368C318.644 79.6474 318.128 82.6574 317.096 85.4668C316.064 88.2188 314.574 90.6554 312.624 92.7768C310.732 94.8981 308.41 96.5608 305.658 97.7648C302.964 98.9114 299.925 99.4848 296.542 99.4848ZM274.698 115.739L274.354 112.815C275.616 112.241 277.135 111.639 278.912 111.009C280.747 110.435 282.295 109.948 283.556 109.547L282.438 115.739H274.698ZM287.598 115.739L288.372 108.945C289.978 109.289 291.612 109.661 293.274 110.063C294.937 110.521 296.37 111.037 297.574 111.611L297.144 115.739H287.598ZM280.03 115.739V59.8388L286.308 56.2268L290.092 59.6668V115.739H280.03ZM273.666 63.1928L272.892 59.0648C274.842 58.2048 277.02 57.5454 279.428 57.0868C281.836 56.5708 284.158 56.2841 286.394 56.2268L287.254 58.8928L282.352 63.3648L273.666 63.1928ZM353.462 99.5708C352.659 99.5708 351.742 99.2268 350.71 98.5388C349.735 97.8508 348.818 96.9621 347.958 95.8728C347.098 94.7834 346.438 93.6081 345.98 92.3468L345.636 91.4008V70.8468C345.636 68.1521 345.292 66.1454 344.604 64.8268C343.916 63.5081 342.884 62.5048 341.508 61.8168C340.132 61.8741 338.67 62.0461 337.122 62.3328C335.574 62.5621 334.341 62.8488 333.424 63.1928L332.22 72.3088L326.372 72.5668C325.684 70.9614 325.139 69.1841 324.738 67.2348C324.394 65.2281 324.222 63.2788 324.222 61.3868C325.712 60.6414 327.404 59.9248 329.296 59.2368C331.188 58.5488 333.108 57.9468 335.058 57.4308C337.064 56.8574 338.899 56.4274 340.562 56.1408C342.224 55.7968 343.543 55.6248 344.518 55.6248C345.894 55.6248 347.241 55.9401 348.56 56.5708C349.878 57.1441 351.082 57.9181 352.172 58.8928C353.261 59.8101 354.092 60.7561 354.666 61.7308C355.124 62.4761 355.411 63.4221 355.526 64.5688C355.64 65.7154 355.698 67.7221 355.698 70.5888V89.8528C355.698 90.4834 355.898 90.9421 356.3 91.2288C356.758 91.5154 357.303 91.6588 357.934 91.6588C358.564 91.6588 359.224 91.6014 359.912 91.4868C360.657 91.3721 361.374 91.2288 362.062 91.0568L363.094 94.8408L353.462 99.5708ZM336.95 99.3988C333.739 99.8001 331.073 99.4848 328.952 98.4528C326.83 97.4208 325.254 96.0448 324.222 94.3248C323.19 92.5474 322.674 90.7988 322.674 89.0788C322.674 87.3588 323.161 85.6388 324.136 83.9188C325.11 82.1988 326.716 80.7368 328.952 79.5328L347.958 79.0168L347.7 83.9188L345.98 83.8328C344.546 83.7181 343.056 83.6894 341.508 83.7468C340.017 83.8041 338.612 84.0048 337.294 84.3488C336.032 84.6354 334.972 85.1514 334.112 85.8968C333.309 86.5848 332.908 87.5308 332.908 88.7348C332.908 89.4228 333.08 90.1394 333.424 90.8848C333.768 91.5728 334.255 92.1461 334.886 92.6048C336.376 92.6048 337.896 92.4041 339.444 92.0028C340.992 91.6014 342.454 91.1428 343.83 90.6268C345.206 90.1108 346.295 89.6808 347.098 89.3368L347.442 92.9488L336.95 99.3988ZM370.819 98.2808V59.8388L377.097 56.2268L380.881 59.7528V98.2808H370.819ZM377.699 78.1568L375.893 72.3088L389.825 57.5168C391.775 56.7141 393.638 56.4274 395.415 56.6568C397.193 56.8288 398.769 57.4021 400.145 58.3768C400.26 59.4661 400.26 60.6701 400.145 61.9888C400.088 63.3074 399.973 64.6548 399.801 66.0308C399.629 67.4068 399.4 68.7828 399.113 70.1588C398.827 71.4774 398.511 72.7101 398.167 73.8568H392.319L391.115 64.2248C389.682 65.0274 388.163 66.0881 386.557 67.4068C385.009 68.7254 383.461 70.2734 381.913 72.0508C380.365 73.8281 378.961 75.8634 377.699 78.1568ZM364.369 63.1928L363.595 59.0648C365.545 58.2048 367.723 57.5454 370.131 57.0868C372.539 56.5708 374.861 56.2841 377.097 56.2268L377.785 59.6668L373.055 63.3648L364.369 63.1928ZM364.885 98.2808L364.541 95.3568C365.745 94.7261 367.236 94.0954 369.013 93.4648C370.848 92.8341 372.396 92.3754 373.657 92.0888L372.625 98.2808H364.885ZM378.645 98.2808L379.419 91.6588C380.451 91.7161 381.627 91.8881 382.945 92.1748C384.321 92.4041 385.64 92.6908 386.901 93.0348C388.163 93.3214 389.166 93.6941 389.911 94.1528L389.567 98.2808H378.645ZM409.622 98.2808V38.6828L415.814 34.9848L419.684 38.4248V98.2808H409.622ZM414.352 83.0588L413.664 81.2528L423.812 75.6628L436.798 59.8388L442.646 56.2268L445.742 61.0428L429.144 80.6508L414.352 83.0588ZM438.346 99.3128C437.2 98.9114 436.225 98.3094 435.422 97.5068C434.677 96.7041 433.817 95.5861 432.842 94.1528L423.124 79.1888L431.552 75.4048L443.076 91.8308C443.478 92.4041 444.108 92.7481 444.968 92.8628C445.828 92.9201 446.889 92.8628 448.15 92.6908L449.096 96.5608L438.346 99.3128ZM403.086 41.9508L402.312 37.8228C404.262 37.0201 406.44 36.3894 408.848 35.9308C411.256 35.4148 413.578 35.0994 415.814 34.9848L416.502 38.5108L411.772 42.2088L403.086 41.9508ZM427.854 63.1928L426.994 59.0648C428.542 58.4914 430.234 58.0041 432.068 57.6028C433.96 57.2014 435.824 56.8861 437.658 56.6568C439.55 56.3701 441.213 56.2268 442.646 56.2268L442.56 60.2688L438.69 62.7628L427.854 63.1928ZM403.516 98.2808L403.172 95.3568C404.434 94.7261 405.953 94.0954 407.73 93.4648C409.565 92.8341 411.113 92.3754 412.374 92.0888L411.256 98.2808H403.516ZM414.954 98.2808L415.384 92.0028C416.932 92.1748 418.509 92.4328 420.114 92.7768C421.72 93.1208 423.067 93.5794 424.156 94.1528L423.726 98.2808H414.954Z" fill="white"/>
<path d="M149.06 103.069C146.207 109.095 141.866 114.156 136.516 117.695C131.165 121.234 125.011 123.113 118.733 123.126C116.038 123.138 113.352 122.795 110.734 122.105L115.956 109.666C120.566 110.324 125.25 109.37 129.319 106.944C133.388 104.517 136.626 100.748 138.558 96.1896C140.489 91.6314 141.012 86.5254 140.048 81.6233C139.084 76.7211 136.686 72.2819 133.205 68.959L138.427 56.561C145.074 61.6566 149.803 69.1534 151.754 77.6882C153.706 86.223 152.75 95.2291 149.06 103.069Z" fill="url(#paint0_linear_850_58)"/>
<path d="M141.627 32.5028L136.481 44.6557C132.685 43.4517 128.656 43.388 124.829 44.4714C121.002 45.5548 117.522 47.7442 114.765 50.8032C112.008 53.8621 110.079 57.6744 109.186 61.8285C108.293 65.9826 108.47 70.3205 109.698 74.3741C111.236 79.533 114.405 83.9463 118.654 86.8435L113.508 99.0169C105.904 94.3504 100.259 86.7065 97.748 77.6731C95.2366 68.6396 96.051 58.9108 100.022 50.5075C103.754 42.5825 110.03 36.3879 117.683 33.0761C125.336 29.7642 133.845 29.5605 141.627 32.5028Z" fill="url(#paint1_linear_850_58)"/>
<path d="M133.546 94.6026C132.165 97.5287 129.997 99.9384 127.326 101.518C124.655 103.097 121.605 103.773 118.572 103.457L130.475 75.3214C132.849 77.7481 134.431 80.937 134.984 84.4121C135.538 87.8872 135.033 91.462 133.546 94.6026Z" fill="url(#paint2_linear_850_58)"/>
<path d="M133.61 51.5083L121.602 79.8991C118.48 77.9451 116.143 74.8099 115.047 71.103C113.951 67.3961 114.173 63.3823 115.67 59.8421C117.168 56.3018 119.833 53.488 123.149 51.9478C126.464 50.4076 130.193 50.2509 133.61 51.5083Z" fill="url(#paint3_linear_850_58)"/>
<path d="M189.899 30.2329V121.617" stroke="url(#paint4_linear_850_58)" stroke-width="4"/>
<defs>
<filter id="filter0_d_850_58" x="0.812256" y="141.719" width="546.447" height="26.3999" filterUnits="userSpaceOnUse" color-interpolation-filters="sRGB">
<feFlood flood-opacity="0" result="BackgroundImageFix"/>
<feColorMatrix in="SourceAlpha" type="matrix" values="0 0 0 0 0 0 0 0 0 0 0 0 0 0 0 0 0 0 127 0" result="hardAlpha"/>
<feOffset dy="4"/>
<feGaussianBlur stdDeviation="2"/>
<feComposite in2="hardAlpha" operator="out"/>
<feColorMatrix type="matrix" values="0 0 0 0 0.52549 0 0 0 0 0.403922 0 0 0 0 0.976471 0 0 0 0.2 0"/>
<feBlend mode="normal" in2="BackgroundImageFix" result="effect1_dropShadow_850_58"/>
<feBlend mode="normal" in="SourceGraphic" in2="effect1_dropShadow_850_58" result="shape"/>
</filter>
<linearGradient id="paint0_linear_850_58" x1="96.3164" y1="97.7818" x2="152.758" y2="97.6226" gradientUnits="userSpaceOnUse">
<stop stop-color="#C70039"/>
<stop offset="1" stop-color="#FF5733"/>
</linearGradient>
<linearGradient id="paint1_linear_850_58" x1="96.3164" y1="97.7818" x2="152.758" y2="97.6226" gradientUnits="userSpaceOnUse">
<stop stop-color="#C70039"/>
<stop offset="1" stop-color="#FF5733"/>
</linearGradient>
<linearGradient id="paint2_linear_850_58" x1="96.3164" y1="97.7818" x2="152.758" y2="97.6226" gradientUnits="userSpaceOnUse">
<stop stop-color="#C70039"/>
<stop offset="1" stop-color="#FF5733"/>
</linearGradient>
<linearGradient id="paint3_linear_850_58" x1="96.3164" y1="97.7818" x2="152.758" y2="97.6226" gradientUnits="userSpaceOnUse">
<stop stop-color="#C70039"/>
<stop offset="1" stop-color="#FF5733"/>
</linearGradient>
<linearGradient id="paint4_linear_850_58" x1="189.899" y1="96.6298" x2="190.899" y2="96.6298" gradientUnits="userSpaceOnUse">
<stop stop-color="#C70039"/>
<stop offset="1" stop-color="#FF5733"/>
</linearGradient>
</defs>
</svg>
