<svg width="24" height="24" viewBox="0 0 24 24" fill="none" xmlns="http://www.w3.org/2000/svg">
<path d="M20.4863 20.5098C18.2205 22.7615 15.2041 24 12 24C8.79593 24 5.78421 22.7615 3.51837 20.5098C1.24785 18.258 0 15.265 0 12.0797C0 8.89445 1.24785 5.90148 3.51837 3.64973C5.78421 1.40266 8.79593 0.159497 12 0.159497C15.2041 0.159497 18.2158 1.39797 20.4816 3.64973C22.7522 5.90148 24 8.89445 24 12.0797C24 15.265 22.7522 18.258 20.4863 20.5098V20.5098ZM21.3636 15.9077H16.9117C16.907 15.9218 16.907 15.9359 16.9023 15.95C16.4707 18.2815 15.8374 20.2424 15.3448 21.5606C18.0704 20.613 20.2658 18.5395 21.3636 15.9077ZM10.6443 22.0297C11.0899 22.0907 11.5403 22.1188 12 22.1188C12.38 22.1188 12.7506 22.0954 13.1165 22.0579C13.5199 21.1243 14.4253 18.8256 14.9977 15.9077H9.18999C9.67787 19.154 10.4894 21.5794 10.6443 22.0297ZM1.87647 12.0797C1.87647 12.7459 1.94214 13.398 2.0688 14.0313H7.07428C6.9007 12.1501 6.88663 10.3393 7.03206 8.63643H2.49101C2.09226 9.71071 1.87647 10.8694 1.87647 12.0797ZM3.41986 6.75997H7.26661C7.50117 5.32916 7.85301 3.97811 8.33151 2.72557C6.29085 3.51368 4.5692 4.94449 3.41986 6.75997V6.75997ZM7.29476 15.9077H2.64113C3.72009 18.4926 5.85457 20.5332 8.50508 21.5043C8.15325 20.3034 7.63722 18.319 7.29476 15.9077V15.9077ZM13.3511 2.12979C12.9101 2.07349 12.4597 2.04066 12.0047 2.04066C11.5356 2.04066 11.0758 2.07349 10.6208 2.13448C9.90774 3.61689 9.44801 5.18843 9.17592 6.75997H15.0915C14.7584 5.19781 14.2048 3.62627 13.3511 2.12979ZM15.3823 8.63643H8.9226C8.74902 10.5551 8.80532 12.4081 8.96013 14.0313H15.3026C15.509 12.4034 15.5887 10.5504 15.3823 8.63643V8.63643ZM15.767 2.7584C16.3206 4.01095 16.7381 5.34793 17.0055 6.75997H20.5848C19.4543 4.96794 17.7654 3.5559 15.767 2.7584ZM17.2776 8.63643L17.2916 8.80532C17.4418 10.466 17.4089 12.2205 17.1931 14.0313H21.9359C22.0625 13.398 22.1282 12.7459 22.1282 12.0797C22.1282 10.8694 21.9124 9.71071 21.5137 8.63643H17.2776V8.63643Z" fill="url(#paint0_linear_850_47)"/>
<defs>
<linearGradient id="paint0_linear_850_47" x1="0" y1="12.0797" x2="24" y2="12.0797" gradientUnits="userSpaceOnUse">
<stop stop-color="#FF884B"/>
<stop offset="0.35" stop-color="#FF634C"/>
<stop offset="0.655" stop-color="#FE4A4F"/>
<stop offset="1" stop-color="#FE4840"/>
</linearGradient>
</defs>
</svg>
