<svg width="40" height="41" viewBox="0 0 40 41" fill="none" xmlns="http://www.w3.org/2000/svg">
<path d="M17.39 14.4179V17.1719H15.374V20.5379H17.39V30.5439H21.534V20.5379H24.314C24.314 20.5379 24.576 18.9239 24.702 17.1579H21.55V14.8579C21.55 14.5119 22.002 14.0499 22.45 14.0499H24.706V10.5439H21.636C17.288 10.5439 17.39 13.9139 17.39 14.4179Z" fill="#D6D6D6"/>
<path d="M8 4.54395C6.93913 4.54395 5.92172 4.96537 5.17157 5.71552C4.42143 6.46566 4 7.48308 4 8.54395V32.5439C4 33.6048 4.42143 34.6222 5.17157 35.3724C5.92172 36.1225 6.93913 36.5439 8 36.5439H32C33.0609 36.5439 34.0783 36.1225 34.8284 35.3724C35.5786 34.6222 36 33.6048 36 32.5439V8.54395C36 7.48308 35.5786 6.46566 34.8284 5.71552C34.0783 4.96537 33.0609 4.54395 32 4.54395H8ZM8 0.543945H32C34.1217 0.543945 36.1566 1.3868 37.6569 2.88709C39.1571 4.38738 40 6.42221 40 8.54395V32.5439C40 34.6657 39.1571 36.7005 37.6569 38.2008C36.1566 39.7011 34.1217 40.5439 32 40.5439H8C5.87827 40.5439 3.84344 39.7011 2.34315 38.2008C0.842855 36.7005 0 34.6657 0 32.5439V8.54395C0 6.42221 0.842855 4.38738 2.34315 2.88709C3.84344 1.3868 5.87827 0.543945 8 0.543945V0.543945Z" fill="#D6D6D6"/>
</svg>
