<svg width="31" height="51" viewBox="0 0 31 51" fill="none" xmlns="http://www.w3.org/2000/svg">
<path d="M28.8807 39.8401C27.3231 43.1301 24.9533 45.8932 22.0321 47.8252C19.1109 49.7572 15.7516 50.7831 12.3241 50.7901C10.8529 50.7967 9.3864 50.6095 7.95734 50.2325L10.8082 43.4418C13.3249 43.8009 15.8821 43.2799 18.1033 41.9555C20.3246 40.631 22.0926 38.5731 23.147 36.0846C24.2015 33.5961 24.4866 30.8086 23.9606 28.1324C23.4345 25.4562 22.125 23.0326 20.2247 21.2186L23.0756 14.4501C26.7043 17.232 29.286 21.3247 30.3514 25.9841C31.4167 30.6435 30.8949 35.5602 28.8807 39.8401Z" fill="url(#paint0_linear_613_37)"/>
<path d="M24.8228 1.31603L22.0133 7.95065C19.941 7.29337 17.7413 7.25859 15.6519 7.85006C13.5626 8.44152 11.6628 9.63677 10.1578 11.3068C8.65276 12.9767 7.59967 15.058 7.1122 17.3258C6.62473 19.5936 6.7214 21.9619 7.39179 24.1748C8.23101 26.9912 9.96149 29.4006 12.2812 30.9823L9.47171 37.6281C5.32011 35.0805 2.23877 30.9075 0.867714 25.9758C-0.503341 21.0442 -0.0587303 15.733 2.1092 11.1453C4.14659 6.81881 7.57297 3.43702 11.751 1.62898C15.9291 -0.179069 20.5743 -0.290281 24.8228 1.31603Z" fill="url(#paint1_linear_613_37)"/>
<path d="M20.411 35.2182C19.6568 36.8156 18.4734 38.1312 17.0153 38.9934C15.5571 39.8556 13.8917 40.2245 12.2362 40.052L18.7347 24.692C20.0306 26.0168 20.8941 27.7577 21.1962 29.6549C21.4984 31.552 21.2229 33.5036 20.411 35.2182Z" fill="url(#paint2_linear_613_37)"/>
<path d="M20.4456 11.6917L13.8903 27.1911C12.1858 26.1244 10.9103 24.4128 10.3118 22.389C9.71336 20.3653 9.83462 18.1741 10.6521 16.2414C11.4695 14.3086 12.9247 12.7725 14.7347 11.9316C16.5448 11.0908 18.5803 11.0052 20.4456 11.6917Z" fill="url(#paint3_linear_613_37)"/>
<defs>
<linearGradient id="paint0_linear_613_37" x1="0.0861817" y1="36.9538" x2="30.8995" y2="36.8669" gradientUnits="userSpaceOnUse">
<stop stop-color="#C70039"/>
<stop offset="1" stop-color="#FF5733"/>
</linearGradient>
<linearGradient id="paint1_linear_613_37" x1="0.0861817" y1="36.9538" x2="30.8995" y2="36.8669" gradientUnits="userSpaceOnUse">
<stop stop-color="#C70039"/>
<stop offset="1" stop-color="#FF5733"/>
</linearGradient>
<linearGradient id="paint2_linear_613_37" x1="0.0861817" y1="36.9538" x2="30.8995" y2="36.8669" gradientUnits="userSpaceOnUse">
<stop stop-color="#C70039"/>
<stop offset="1" stop-color="#FF5733"/>
</linearGradient>
<linearGradient id="paint3_linear_613_37" x1="0.0861817" y1="36.9538" x2="30.8995" y2="36.8669" gradientUnits="userSpaceOnUse">
<stop stop-color="#C70039"/>
<stop offset="1" stop-color="#FF5733"/>
</linearGradient>
</defs>
</svg>
