<svg width="40" height="41" viewBox="0 0 40 41" fill="none" xmlns="http://www.w3.org/2000/svg">
<path d="M30 22.3432V29.7372H25.714V22.8372C25.714 21.1052 25.094 19.9232 23.542 19.9232C22.358 19.9232 21.652 20.7192 21.342 21.4912C21.23 21.7672 21.2 22.1512 21.2 22.5352V29.7372H16.912C16.912 29.7372 16.97 18.0532 16.912 16.8432H21.2V18.6692L21.172 18.7112H21.2V18.6712C21.77 17.7912 22.786 16.5392 25.064 16.5392C27.884 16.5392 30 18.3832 30 22.3432ZM12.426 10.6252C10.96 10.6252 10 11.5892 10 12.8532C10 14.0932 10.932 15.0832 12.37 15.0832H12.398C13.894 15.0832 14.824 14.0912 14.824 12.8532C14.796 11.5892 13.894 10.6252 12.426 10.6252ZM10.254 29.7372H14.542V16.8432H10.254V29.7372Z" fill="#D6D6D6"/>
<path d="M8 4.08325C6.93913 4.08325 5.92172 4.50468 5.17157 5.25482C4.42143 6.00497 4 7.02239 4 8.08325V32.0833C4 33.1441 4.42143 34.1615 5.17157 34.9117C5.92172 35.6618 6.93913 36.0833 8 36.0833H32C33.0609 36.0833 34.0783 35.6618 34.8284 34.9117C35.5786 34.1615 36 33.1441 36 32.0833V8.08325C36 7.02239 35.5786 6.00497 34.8284 5.25482C34.0783 4.50468 33.0609 4.08325 32 4.08325H8ZM8 0.083252H32C34.1217 0.083252 36.1566 0.926107 37.6569 2.4264C39.1571 3.92669 40 5.96152 40 8.08325V32.0833C40 34.205 39.1571 36.2398 37.6569 37.7401C36.1566 39.2404 34.1217 40.0833 32 40.0833H8C5.87827 40.0833 3.84344 39.2404 2.34315 37.7401C0.842855 36.2398 0 34.205 0 32.0833V8.08325C0 5.96152 0.842855 3.92669 2.34315 2.4264C3.84344 0.926107 5.87827 0.083252 8 0.083252V0.083252Z" fill="#D6D6D6"/>
</svg>
