<svg width="80" height="104" viewBox="0 0 80 104" fill="none" xmlns="http://www.w3.org/2000/svg">
<path d="M79.1639 74.2461L38.5285 103.489L0.793174 74.2344L0.792969 0H79.1639V74.2461Z" fill="#1B1D24"/>
<path d="M57.8644 61.1309C55.9775 64.6682 53.1065 67.6389 49.5677 69.716C46.0289 71.7932 41.9594 72.8962 37.8072 72.9037C36.0248 72.9109 34.2483 72.7096 32.5171 72.3043L35.9707 65.0032C39.0195 65.3894 42.1174 64.8292 44.8083 63.4052C47.4992 61.9812 49.641 59.7686 50.9184 57.0931C52.1958 54.4177 52.5412 51.4206 51.9039 48.5433C51.2666 45.666 49.6802 43.0603 47.3782 41.1099L50.8318 33.8329C55.2278 36.8237 58.3554 41.224 59.646 46.2336C60.9365 51.2432 60.3044 56.5294 57.8644 61.1309Z" fill="url(#paint0_linear_580_36)"/>
<path d="M52.9485 19.7117L49.545 26.8449C47.0344 26.1382 44.3697 26.1008 41.8386 26.7368C39.3074 27.3727 37.006 28.6578 35.1828 30.4532C33.3595 32.2487 32.0838 34.4864 31.4932 36.9246C30.9027 39.3629 31.0198 41.9091 31.8319 44.2883C32.8486 47.3164 34.945 49.9068 37.7551 51.6074L34.3516 58.7526C29.3222 56.0136 25.5894 51.527 23.9285 46.2247C22.2675 40.9225 22.8061 35.2121 25.4324 30.2797C27.9006 25.628 32.0514 21.9921 37.1129 20.0482C42.1743 18.1042 47.8017 17.9847 52.9485 19.7117Z" fill="url(#paint1_linear_580_36)"/>
<path d="M47.6039 56.1616C46.6901 57.8791 45.2566 59.2935 43.4902 60.2205C41.7237 61.1475 39.7062 61.5441 37.7006 61.3587L45.5731 44.8444C47.143 46.2687 48.1891 48.1405 48.5551 50.1802C48.9211 52.22 48.5874 54.3182 47.6039 56.1616Z" fill="url(#paint2_linear_580_36)"/>
<path d="M47.6458 30.8671L39.7044 47.5313C37.6396 46.3844 36.0944 44.5442 35.3694 42.3684C34.6444 40.1926 34.7913 37.8367 35.7816 35.7587C36.7718 33.6807 38.5347 32.0291 40.7275 31.1251C42.9202 30.221 45.3861 30.1291 47.6458 30.8671Z" fill="url(#paint3_linear_580_36)"/>
<defs>
<linearGradient id="paint0_linear_580_36" x1="61.2206" y1="23.9359" x2="22.9818" y2="24.1556" gradientUnits="userSpaceOnUse">
<stop stop-color="#FF5733"/>
<stop offset="1" stop-color="#C70039"/>
</linearGradient>
<linearGradient id="paint1_linear_580_36" x1="61.2206" y1="23.9359" x2="22.9818" y2="24.1556" gradientUnits="userSpaceOnUse">
<stop stop-color="#FF5733"/>
<stop offset="1" stop-color="#C70039"/>
</linearGradient>
<linearGradient id="paint2_linear_580_36" x1="61.2206" y1="23.9359" x2="22.9818" y2="24.1556" gradientUnits="userSpaceOnUse">
<stop stop-color="#FF5733"/>
<stop offset="1" stop-color="#C70039"/>
</linearGradient>
<linearGradient id="paint3_linear_580_36" x1="61.2206" y1="23.9359" x2="22.9818" y2="24.1556" gradientUnits="userSpaceOnUse">
<stop stop-color="#FF5733"/>
<stop offset="1" stop-color="#C70039"/>
</linearGradient>
</defs>
</svg>
