<svg width="790" height="263" viewBox="0 0 790 263" fill="none" xmlns="http://www.w3.org/2000/svg">
<path d="M16.416 105.903C16.416 106.991 16 107.919 15.168 108.687C14.4 109.455 13.472 109.839 12.384 109.839C11.168 109.839 10.208 109.455 9.504 108.687C8.8 107.919 8.448 106.991 8.448 105.903V46.5755C8.448 45.4235 8.832 44.4955 9.6 43.7915C10.368 43.0235 11.328 42.6395 12.48 42.6395C13.568 42.6395 14.496 43.0235 15.264 43.7915C16.032 44.4955 16.416 45.4235 16.416 46.5755V105.903ZM57.5798 58.9595C60.3318 58.9595 62.8918 59.4395 65.2598 60.3995C67.6278 61.2955 69.6758 62.4795 71.4038 63.9515C73.1958 65.4235 74.5718 66.9595 75.5318 68.5595C76.5558 70.1595 77.0678 71.6635 77.0678 73.0715L75.2438 71.9195V63.5675C75.2438 62.4795 75.5958 61.5835 76.2998 60.8795C77.0038 60.1115 77.9318 59.7275 79.0838 59.7275C80.1718 59.7275 81.0678 60.1115 81.7718 60.8795C82.5398 61.5835 82.9237 62.4795 82.9237 63.5675V105.615C82.9237 110.863 81.8038 115.215 79.5638 118.671C77.3878 122.127 74.4438 124.719 70.7318 126.447C67.0198 128.175 62.8597 129.039 58.2517 129.039C56.3317 129.039 54.2197 128.783 51.9158 128.271C49.6118 127.759 47.5638 127.119 45.7718 126.351C43.9797 125.647 42.8277 124.911 42.3157 124.143C41.3557 123.503 40.7477 122.767 40.4917 121.935C40.2997 121.167 40.4597 120.431 40.9718 119.727C41.5477 118.831 42.2837 118.383 43.1797 118.383C44.1397 118.383 45.3237 118.671 46.7317 119.247C47.3077 119.439 48.2038 119.759 49.4198 120.207C50.6998 120.655 52.1077 121.039 53.6437 121.359C55.2437 121.743 56.8118 121.935 58.3478 121.935C63.7878 121.935 67.9478 120.495 70.8278 117.615C73.7718 114.799 75.2438 111.055 75.2438 106.383V97.4555L76.2998 97.9355C75.9158 99.7275 75.1158 101.391 73.8998 102.927C72.7478 104.463 71.3078 105.839 69.5798 107.055C67.9158 108.207 66.0598 109.135 64.0118 109.839C61.9637 110.479 59.8837 110.799 57.7718 110.799C53.2917 110.799 49.2597 109.679 45.6758 107.439C42.0918 105.199 39.2437 102.127 37.1317 98.2235C35.0837 94.3195 34.0597 89.8715 34.0597 84.8795C34.0597 79.8235 35.0837 75.3435 37.1317 71.4395C39.2437 67.5355 42.0598 64.4955 45.5798 62.3195C49.1638 60.0795 53.1638 58.9595 57.5798 58.9595ZM58.5398 66.0635C55.2758 66.0635 52.3317 66.8955 49.7077 68.5595C47.1478 70.1595 45.1318 72.3675 43.6598 75.1835C42.2517 77.9995 41.5477 81.2315 41.5477 84.8795C41.5477 88.3995 42.2517 91.5995 43.6598 94.4795C45.1318 97.2955 47.1478 99.5355 49.7077 101.199C52.3317 102.863 55.2758 103.695 58.5398 103.695C61.8678 103.695 64.8118 102.895 67.3717 101.295C69.9318 99.6315 71.9478 97.3915 73.4198 94.5755C74.8918 91.7595 75.6278 88.5275 75.6278 84.8795C75.6278 81.1675 74.8918 77.9035 73.4198 75.0875C71.9478 72.2715 69.9318 70.0635 67.3717 68.4635C64.8118 66.8635 61.8678 66.0635 58.5398 66.0635ZM126.595 58.9595C130.947 58.9595 134.371 59.8555 136.867 61.6475C139.363 63.4395 141.123 65.8395 142.147 68.8475C143.235 71.8555 143.779 75.2155 143.779 78.9275V105.903C143.779 106.991 143.395 107.919 142.627 108.687C141.923 109.455 141.027 109.839 139.939 109.839C138.851 109.839 137.923 109.455 137.155 108.687C136.451 107.919 136.099 106.991 136.099 105.903V79.1195C136.099 76.6875 135.715 74.5115 134.947 72.5915C134.243 70.6075 133.027 69.0395 131.299 67.8875C129.635 66.6715 127.331 66.0635 124.387 66.0635C121.699 66.0635 119.235 66.6715 116.995 67.8875C114.755 69.0395 112.963 70.6075 111.619 72.5915C110.275 74.5115 109.603 76.6875 109.603 79.1195V105.903C109.603 106.991 109.219 107.919 108.451 108.687C107.747 109.455 106.851 109.839 105.763 109.839C104.675 109.839 103.747 109.455 102.979 108.687C102.275 107.919 101.923 106.991 101.923 105.903V64.0475C101.923 62.9595 102.275 62.0635 102.979 61.3595C103.747 60.5915 104.675 60.2075 105.763 60.2075C106.915 60.2075 107.843 60.5915 108.547 61.3595C109.251 62.0635 109.603 62.9595 109.603 64.0475V70.8635L107.683 72.9755C108.003 71.3115 108.739 69.6475 109.891 67.9835C111.043 66.2555 112.483 64.7195 114.211 63.3755C115.939 62.0315 117.859 60.9755 119.971 60.2075C122.083 59.3755 124.291 58.9595 126.595 58.9595ZM170.177 105.903C170.177 106.991 169.793 107.919 169.025 108.687C168.321 109.455 167.425 109.839 166.337 109.839C165.185 109.839 164.257 109.455 163.553 108.687C162.849 107.919 162.497 106.991 162.497 105.903V63.2795C162.497 62.1915 162.849 61.2955 163.553 60.5915C164.321 59.8235 165.249 59.4395 166.337 59.4395C167.425 59.4395 168.321 59.8235 169.025 60.5915C169.793 61.2955 170.177 62.1915 170.177 63.2795V105.903ZM166.337 53.0075C164.737 53.0075 163.553 52.6875 162.785 52.0475C162.017 51.4075 161.633 50.4155 161.633 49.0715V47.7275C161.633 46.3835 162.049 45.3915 162.881 44.7515C163.713 44.1115 164.897 43.7915 166.433 43.7915C167.969 43.7915 169.121 44.1115 169.889 44.7515C170.657 45.3915 171.041 46.3835 171.041 47.7275V49.0715C171.041 50.4155 170.625 51.4075 169.793 52.0475C169.025 52.6875 167.873 53.0075 166.337 53.0075ZM186.853 60.4955H209.413C210.437 60.4955 211.269 60.8475 211.909 61.5515C212.613 62.2555 212.965 63.0875 212.965 64.0475C212.965 65.0715 212.613 65.9355 211.909 66.6395C211.269 67.2795 210.437 67.5995 209.413 67.5995H186.853C185.893 67.5995 185.061 67.2475 184.357 66.5435C183.653 65.8395 183.301 64.9755 183.301 63.9515C183.301 62.9915 183.653 62.1915 184.357 61.5515C185.061 60.8475 185.893 60.4955 186.853 60.4955ZM196.933 47.4395C198.021 47.4395 198.917 47.8235 199.621 48.5915C200.325 49.2955 200.677 50.1915 200.677 51.2795V97.6475C200.677 99.1835 200.901 100.335 201.349 101.103C201.797 101.871 202.373 102.415 203.077 102.735C203.845 102.991 204.581 103.119 205.285 103.119C205.925 103.119 206.469 103.023 206.917 102.831C207.429 102.575 208.005 102.447 208.645 102.447C209.285 102.447 209.861 102.767 210.373 103.407C210.949 103.983 211.237 104.751 211.237 105.711C211.237 106.863 210.565 107.855 209.221 108.687C207.877 109.455 206.373 109.839 204.709 109.839C203.813 109.839 202.693 109.775 201.349 109.647C200.069 109.519 198.789 109.103 197.509 108.399C196.229 107.695 195.141 106.543 194.245 104.943C193.413 103.279 192.997 100.975 192.997 98.0315V51.2795C192.997 50.1915 193.381 49.2955 194.149 48.5915C194.917 47.8235 195.845 47.4395 196.933 47.4395ZM250.923 110.799C245.803 110.799 241.323 109.711 237.483 107.535C233.643 105.359 230.635 102.383 228.459 98.6075C226.347 94.7675 225.291 90.3515 225.291 85.3595C225.291 79.7915 226.379 75.0555 228.555 71.1515C230.795 67.1835 233.675 64.1755 237.195 62.1275C240.779 60.0155 244.555 58.9595 248.523 58.9595C251.467 58.9595 254.315 59.5035 257.067 60.5915C259.819 61.6795 262.251 63.2795 264.363 65.3915C266.475 67.4395 268.171 69.9355 269.451 72.8795C270.731 75.7595 271.403 78.9915 271.467 82.5755C271.467 83.5995 271.083 84.4635 270.315 85.1675C269.547 85.8715 268.651 86.2235 267.627 86.2235H229.707L227.979 79.5995H264.939L263.403 80.9435V78.8315C263.147 76.2075 262.251 73.9675 260.715 72.1115C259.243 70.1915 257.419 68.7195 255.243 67.6955C253.131 66.6715 250.891 66.1595 248.523 66.1595C246.603 66.1595 244.683 66.5115 242.763 67.2155C240.907 67.8555 239.211 68.9435 237.675 70.4795C236.203 71.9515 234.987 73.8715 234.027 76.2395C233.131 78.6075 232.683 81.4555 232.683 84.7835C232.683 88.4955 233.419 91.7595 234.891 94.5755C236.427 97.3915 238.539 99.6315 241.227 101.295C243.915 102.895 247.051 103.695 250.635 103.695C252.875 103.695 254.827 103.407 256.491 102.831C258.155 102.255 259.595 101.551 260.811 100.719C262.027 99.8235 263.051 98.9275 263.883 98.0315C264.715 97.4555 265.515 97.1675 266.283 97.1675C267.243 97.1675 268.011 97.4875 268.587 98.1275C269.227 98.7675 269.547 99.5355 269.547 100.431C269.547 101.519 269.035 102.479 268.011 103.311C266.219 105.295 263.787 107.055 260.715 108.591C257.643 110.063 254.379 110.799 250.923 110.799ZM317.128 60.4955H339.688C340.712 60.4955 341.544 60.8475 342.184 61.5515C342.888 62.2555 343.24 63.0875 343.24 64.0475C343.24 65.0715 342.888 65.9355 342.184 66.6395C341.544 67.2795 340.712 67.5995 339.688 67.5995H317.128C316.168 67.5995 315.336 67.2475 314.632 66.5435C313.928 65.8395 313.576 64.9755 313.576 63.9515C313.576 62.9915 313.928 62.1915 314.632 61.5515C315.336 60.8475 316.168 60.4955 317.128 60.4955ZM327.208 47.4395C328.296 47.4395 329.192 47.8235 329.896 48.5915C330.6 49.2955 330.952 50.1915 330.952 51.2795V97.6475C330.952 99.1835 331.176 100.335 331.624 101.103C332.072 101.871 332.648 102.415 333.352 102.735C334.12 102.991 334.856 103.119 335.56 103.119C336.2 103.119 336.744 103.023 337.192 102.831C337.704 102.575 338.28 102.447 338.92 102.447C339.56 102.447 340.136 102.767 340.648 103.407C341.224 103.983 341.512 104.751 341.512 105.711C341.512 106.863 340.84 107.855 339.496 108.687C338.152 109.455 336.648 109.839 334.984 109.839C334.088 109.839 332.968 109.775 331.624 109.647C330.344 109.519 329.064 109.103 327.784 108.399C326.504 107.695 325.416 106.543 324.52 104.943C323.688 103.279 323.272 100.975 323.272 98.0315V51.2795C323.272 50.1915 323.656 49.2955 324.424 48.5915C325.192 47.8235 326.12 47.4395 327.208 47.4395ZM382.723 59.4395C386.947 59.4395 390.275 60.3675 392.707 62.2235C395.203 64.0155 396.963 66.4475 397.987 69.5195C399.075 72.5275 399.619 75.8875 399.619 79.5995V105.903C399.619 106.991 399.235 107.919 398.467 108.687C397.763 109.455 396.867 109.839 395.779 109.839C394.691 109.839 393.763 109.455 392.995 108.687C392.291 107.919 391.939 106.991 391.939 105.903V79.5995C391.939 77.1675 391.587 74.9915 390.883 73.0715C390.179 71.0875 388.995 69.5195 387.331 68.3675C385.731 67.1515 383.523 66.5435 380.707 66.5435C378.083 66.5435 375.683 67.1515 373.507 68.3675C371.331 69.5195 369.603 71.0875 368.323 73.0715C367.043 74.9915 366.403 77.1675 366.403 79.5995V105.903C366.403 106.991 366.019 107.919 365.251 108.687C364.547 109.455 363.651 109.839 362.563 109.839C361.475 109.839 360.547 109.455 359.779 108.687C359.075 107.919 358.723 106.991 358.723 105.903V42.6395C358.723 41.5515 359.075 40.6555 359.779 39.9515C360.547 39.1835 361.475 38.7995 362.563 38.7995C363.715 38.7995 364.643 39.1835 365.347 39.9515C366.051 40.6555 366.403 41.5515 366.403 42.6395V71.3435L364.483 73.4555C364.803 71.7915 365.507 70.1275 366.595 68.4635C367.683 66.7355 369.059 65.1995 370.723 63.8555C372.387 62.5115 374.243 61.4555 376.291 60.6875C378.339 59.8555 380.483 59.4395 382.723 59.4395ZM441.592 110.799C436.472 110.799 431.992 109.711 428.152 107.535C424.312 105.359 421.304 102.383 419.128 98.6075C417.016 94.7675 415.96 90.3515 415.96 85.3595C415.96 79.7915 417.048 75.0555 419.224 71.1515C421.464 67.1835 424.344 64.1755 427.864 62.1275C431.448 60.0155 435.224 58.9595 439.192 58.9595C442.136 58.9595 444.984 59.5035 447.736 60.5915C450.488 61.6795 452.92 63.2795 455.032 65.3915C457.144 67.4395 458.84 69.9355 460.12 72.8795C461.4 75.7595 462.072 78.9915 462.136 82.5755C462.136 83.5995 461.752 84.4635 460.984 85.1675C460.216 85.8715 459.32 86.2235 458.296 86.2235H420.376L418.648 79.5995H455.608L454.072 80.9435V78.8315C453.816 76.2075 452.92 73.9675 451.384 72.1115C449.912 70.1915 448.088 68.7195 445.912 67.6955C443.8 66.6715 441.56 66.1595 439.192 66.1595C437.272 66.1595 435.352 66.5115 433.432 67.2155C431.576 67.8555 429.88 68.9435 428.344 70.4795C426.872 71.9515 425.656 73.8715 424.696 76.2395C423.8 78.6075 423.352 81.4555 423.352 84.7835C423.352 88.4955 424.088 91.7595 425.56 94.5755C427.096 97.3915 429.208 99.6315 431.896 101.295C434.584 102.895 437.72 103.695 441.304 103.695C443.544 103.695 445.496 103.407 447.16 102.831C448.824 102.255 450.264 101.551 451.48 100.719C452.696 99.8235 453.72 98.9275 454.552 98.0315C455.384 97.4555 456.184 97.1675 456.952 97.1675C457.912 97.1675 458.68 97.4875 459.256 98.1275C459.896 98.7675 460.216 99.5355 460.216 100.431C460.216 101.519 459.704 102.479 458.68 103.311C456.888 105.295 454.456 107.055 451.384 108.591C448.312 110.063 445.048 110.799 441.592 110.799ZM54.24 210.879C54.24 215.871 53.12 220.319 50.88 224.223C48.704 228.127 45.728 231.199 41.952 233.439C38.24 235.679 34.048 236.799 29.376 236.799C24.704 236.799 20.48 235.679 16.704 233.439C12.928 231.199 9.92 228.127 7.68 224.223C5.504 220.319 4.416 215.871 4.416 210.879C4.416 205.887 5.504 201.439 7.68 197.535C9.92 193.631 12.928 190.559 16.704 188.319C20.48 186.079 24.704 184.959 29.376 184.959C34.048 184.959 38.24 186.079 41.952 188.319C45.728 190.559 48.704 193.631 50.88 197.535C53.12 201.439 54.24 205.887 54.24 210.879ZM46.56 210.879C46.56 207.167 45.792 203.903 44.256 201.087C42.784 198.271 40.736 196.063 38.112 194.463C35.552 192.863 32.64 192.063 29.376 192.063C26.112 192.063 23.168 192.863 20.544 194.463C17.984 196.063 15.936 198.271 14.4 201.087C12.864 203.903 12.096 207.167 12.096 210.879C12.096 214.527 12.864 217.759 14.4 220.575C15.936 223.391 17.984 225.631 20.544 227.295C23.168 228.895 26.112 229.695 29.376 229.695C32.64 229.695 35.552 228.895 38.112 227.295C40.736 225.631 42.784 223.391 44.256 220.575C45.792 217.759 46.56 214.527 46.56 210.879ZM91.3275 164.991C92.4155 164.991 93.5355 165.119 94.6875 165.375C95.9035 165.631 96.9275 166.079 97.7595 166.719C98.6555 167.359 99.1035 168.223 99.1035 169.311C99.1035 170.335 98.7835 171.199 98.1435 171.903C97.5035 172.543 96.7355 172.863 95.8395 172.863C95.2635 172.863 94.4635 172.703 93.4395 172.383C92.4155 171.999 91.3595 171.807 90.2715 171.807C88.7995 171.807 87.5835 172.127 86.6235 172.767C85.7275 173.407 85.0555 174.271 84.6075 175.359C84.2235 176.383 84.0315 177.535 84.0315 178.815V231.903C84.0315 232.991 83.6475 233.919 82.8795 234.687C82.1755 235.455 81.2795 235.839 80.1915 235.839C79.0395 235.839 78.1115 235.455 77.4075 234.687C76.7035 233.919 76.3515 232.991 76.3515 231.903V178.911C76.3515 174.623 77.6635 171.231 80.2875 168.735C82.9755 166.239 86.6555 164.991 91.3275 164.991ZM94.0155 186.975C95.0395 186.975 95.9035 187.327 96.6075 188.031C97.3115 188.671 97.6635 189.503 97.6635 190.527C97.6635 191.551 97.3115 192.415 96.6075 193.119C95.9035 193.759 95.0395 194.079 94.0155 194.079H69.9195C68.8955 194.079 68.0315 193.727 67.3275 193.023C66.6235 192.319 66.2715 191.487 66.2715 190.527C66.2715 189.439 66.6235 188.575 67.3275 187.935C68.0315 187.295 68.8955 186.975 69.9195 186.975H94.0155ZM184.556 164.799C185.644 164.799 186.54 165.183 187.244 165.951C188.012 166.655 188.396 167.551 188.396 168.639V231.903C188.396 232.991 188.012 233.919 187.244 234.687C186.54 235.455 185.644 235.839 184.556 235.839C183.404 235.839 182.476 235.455 181.772 234.687C181.068 233.919 180.716 232.991 180.716 231.903V222.783L182.54 222.111C182.54 223.647 182.06 225.279 181.1 227.007C180.14 228.671 178.828 230.239 177.164 231.711C175.5 233.183 173.516 234.399 171.212 235.359C168.972 236.319 166.54 236.799 163.916 236.799C159.628 236.799 155.724 235.679 152.204 233.439C148.748 231.199 145.996 228.127 143.948 224.223C141.964 220.319 140.972 215.871 140.972 210.879C140.972 205.823 141.964 201.343 143.948 197.439C145.996 193.535 148.748 190.495 152.204 188.319C155.66 186.079 159.5 184.959 163.724 184.959C166.412 184.959 168.94 185.407 171.308 186.303C173.676 187.199 175.724 188.415 177.452 189.951C179.244 191.487 180.652 193.183 181.676 195.039C182.7 196.895 183.212 198.751 183.212 200.607L180.716 200.031V168.639C180.716 167.551 181.068 166.655 181.772 165.951C182.476 165.183 183.404 164.799 184.556 164.799ZM164.78 229.695C167.98 229.695 170.796 228.895 173.228 227.295C175.724 225.631 177.644 223.391 178.988 220.575C180.396 217.695 181.1 214.463 181.1 210.879C181.1 207.231 180.396 203.999 178.988 201.183C177.644 198.367 175.724 196.159 173.228 194.559C170.796 192.895 167.98 192.063 164.78 192.063C161.644 192.063 158.828 192.895 156.332 194.559C153.9 196.159 151.98 198.367 150.572 201.183C149.164 203.999 148.46 207.231 148.46 210.879C148.46 214.399 149.164 217.599 150.572 220.479C151.98 223.295 153.9 225.535 156.332 227.199C158.828 228.863 161.644 229.695 164.78 229.695ZM230.373 236.799C225.253 236.799 220.773 235.711 216.933 233.535C213.093 231.359 210.085 228.383 207.909 224.607C205.797 220.767 204.741 216.351 204.741 211.359C204.741 205.791 205.829 201.055 208.005 197.151C210.245 193.183 213.125 190.175 216.645 188.127C220.229 186.015 224.005 184.959 227.973 184.959C230.917 184.959 233.765 185.503 236.517 186.591C239.269 187.679 241.701 189.279 243.813 191.391C245.925 193.439 247.621 195.935 248.901 198.879C250.181 201.759 250.853 204.991 250.917 208.575C250.917 209.599 250.533 210.463 249.765 211.167C248.997 211.871 248.101 212.223 247.077 212.223H209.157L207.429 205.599H244.389L242.853 206.943V204.831C242.597 202.207 241.701 199.967 240.165 198.111C238.693 196.191 236.869 194.719 234.693 193.695C232.581 192.671 230.341 192.159 227.973 192.159C226.053 192.159 224.133 192.511 222.213 193.215C220.357 193.855 218.661 194.943 217.125 196.479C215.653 197.951 214.437 199.871 213.477 202.239C212.581 204.607 212.133 207.455 212.133 210.783C212.133 214.495 212.869 217.759 214.341 220.575C215.877 223.391 217.989 225.631 220.677 227.295C223.365 228.895 226.501 229.695 230.085 229.695C232.325 229.695 234.277 229.407 235.941 228.831C237.605 228.255 239.045 227.551 240.261 226.719C241.477 225.823 242.501 224.927 243.333 224.031C244.165 223.455 244.965 223.167 245.733 223.167C246.693 223.167 247.461 223.487 248.037 224.127C248.677 224.767 248.997 225.535 248.997 226.431C248.997 227.519 248.485 228.479 247.461 229.311C245.669 231.295 243.237 233.055 240.165 234.591C237.093 236.063 233.829 236.799 230.373 236.799ZM266.792 185.343C267.56 185.343 268.296 185.567 269 186.015C269.704 186.399 270.216 186.975 270.536 187.743L286.472 225.183L284.936 225.951L301.16 187.839C301.864 186.111 303.048 185.279 304.712 185.343C305.672 185.343 306.504 185.663 307.208 186.303C307.912 186.943 308.264 187.743 308.264 188.703C308.264 189.087 308.2 189.471 308.072 189.855C308.008 190.175 307.912 190.463 307.784 190.719L289.256 233.343C288.552 234.943 287.432 235.775 285.896 235.839C285.064 235.903 284.264 235.743 283.496 235.359C282.792 234.911 282.28 234.239 281.96 233.343L263.432 190.815C263.304 190.559 263.176 190.271 263.048 189.951C262.984 189.631 262.952 189.247 262.952 188.799C262.952 187.967 263.272 187.199 263.912 186.495C264.616 185.727 265.576 185.343 266.792 185.343ZM345.91 236.799C340.79 236.799 336.31 235.711 332.47 233.535C328.63 231.359 325.622 228.383 323.446 224.607C321.334 220.767 320.278 216.351 320.278 211.359C320.278 205.791 321.366 201.055 323.542 197.151C325.782 193.183 328.662 190.175 332.182 188.127C335.766 186.015 339.542 184.959 343.51 184.959C346.454 184.959 349.302 185.503 352.054 186.591C354.806 187.679 357.238 189.279 359.35 191.391C361.462 193.439 363.158 195.935 364.438 198.879C365.718 201.759 366.39 204.991 366.454 208.575C366.454 209.599 366.07 210.463 365.302 211.167C364.534 211.871 363.638 212.223 362.614 212.223H324.694L322.966 205.599H359.926L358.39 206.943V204.831C358.134 202.207 357.238 199.967 355.702 198.111C354.23 196.191 352.406 194.719 350.23 193.695C348.118 192.671 345.878 192.159 343.51 192.159C341.59 192.159 339.67 192.511 337.75 193.215C335.894 193.855 334.198 194.943 332.662 196.479C331.19 197.951 329.974 199.871 329.014 202.239C328.118 204.607 327.67 207.455 327.67 210.783C327.67 214.495 328.406 217.759 329.878 220.575C331.414 223.391 333.526 225.631 336.214 227.295C338.902 228.895 342.038 229.695 345.622 229.695C347.862 229.695 349.814 229.407 351.478 228.831C353.142 228.255 354.582 227.551 355.798 226.719C357.014 225.823 358.038 224.927 358.87 224.031C359.702 223.455 360.502 223.167 361.27 223.167C362.23 223.167 362.998 223.487 363.574 224.127C364.214 224.767 364.534 225.535 364.534 226.431C364.534 227.519 364.022 228.479 362.998 229.311C361.206 231.295 358.774 233.055 355.702 234.591C352.63 236.063 349.366 236.799 345.91 236.799ZM391.246 231.903C391.246 232.991 390.862 233.919 390.094 234.687C389.326 235.455 388.398 235.839 387.31 235.839C386.222 235.839 385.326 235.455 384.622 234.687C383.918 233.919 383.566 232.991 383.566 231.903V168.639C383.566 167.551 383.918 166.655 384.622 165.951C385.39 165.183 386.318 164.799 387.406 164.799C388.558 164.799 389.486 165.183 390.19 165.951C390.894 166.655 391.246 167.551 391.246 168.639V231.903ZM457.14 210.879C457.14 215.871 456.02 220.319 453.78 224.223C451.604 228.127 448.628 231.199 444.852 233.439C441.14 235.679 436.948 236.799 432.276 236.799C427.604 236.799 423.38 235.679 419.604 233.439C415.828 231.199 412.82 228.127 410.58 224.223C408.404 220.319 407.316 215.871 407.316 210.879C407.316 205.887 408.404 201.439 410.58 197.535C412.82 193.631 415.828 190.559 419.604 188.319C423.38 186.079 427.604 184.959 432.276 184.959C436.948 184.959 441.14 186.079 444.852 188.319C448.628 190.559 451.604 193.631 453.78 197.535C456.02 201.439 457.14 205.887 457.14 210.879ZM449.46 210.879C449.46 207.167 448.692 203.903 447.156 201.087C445.684 198.271 443.636 196.063 441.012 194.463C438.452 192.863 435.54 192.063 432.276 192.063C429.012 192.063 426.068 192.863 423.444 194.463C420.884 196.063 418.836 198.271 417.3 201.087C415.764 203.903 414.996 207.167 414.996 210.879C414.996 214.527 415.764 217.759 417.3 220.575C418.836 223.391 420.884 225.631 423.444 227.295C426.068 228.895 429.012 229.695 432.276 229.695C435.54 229.695 438.452 228.895 441.012 227.295C443.636 225.631 445.684 223.391 447.156 220.575C448.692 217.759 449.46 214.527 449.46 210.879ZM497.972 185.439C502.324 185.439 506.228 186.527 509.684 188.703C513.14 190.879 515.86 193.887 517.844 197.727C519.892 201.567 520.916 205.983 520.916 210.975C520.916 215.903 519.892 220.319 517.844 224.223C515.86 228.063 513.14 231.103 509.684 233.343C506.292 235.519 502.452 236.607 498.164 236.607C495.796 236.607 493.556 236.255 491.444 235.551C489.396 234.783 487.508 233.823 485.78 232.671C484.116 231.455 482.708 230.111 481.556 228.639C480.404 227.103 479.572 225.599 479.06 224.127L481.172 222.783V251.103C481.172 252.191 480.82 253.119 480.116 253.887C479.412 254.655 478.484 255.039 477.332 255.039C476.244 255.039 475.316 254.655 474.548 253.887C473.844 253.183 473.492 252.255 473.492 251.103V189.759C473.492 188.671 473.844 187.775 474.548 187.071C475.316 186.303 476.244 185.919 477.332 185.919C478.484 185.919 479.412 186.303 480.116 187.071C480.82 187.775 481.172 188.671 481.172 189.759V198.303L479.732 197.535C480.18 195.935 480.948 194.399 482.036 192.927C483.188 191.455 484.564 190.175 486.164 189.087C487.828 187.935 489.652 187.039 491.636 186.399C493.684 185.759 495.796 185.439 497.972 185.439ZM497.108 192.543C493.908 192.543 491.06 193.343 488.564 194.943C486.132 196.543 484.212 198.719 482.804 201.471C481.46 204.223 480.788 207.391 480.788 210.975C480.788 214.495 481.46 217.663 482.804 220.479C484.212 223.295 486.132 225.503 488.564 227.103C491.06 228.703 493.908 229.503 497.108 229.503C500.308 229.503 503.124 228.703 505.556 227.103C507.988 225.503 509.908 223.295 511.316 220.479C512.724 217.663 513.428 214.495 513.428 210.975C513.428 207.391 512.724 204.223 511.316 201.471C509.908 198.719 507.988 196.543 505.556 194.943C503.124 193.343 500.308 192.543 497.108 192.543ZM560.972 185.439C565.324 185.439 568.844 186.559 571.532 188.799C574.284 190.975 576.108 194.079 577.004 198.111H575.564L576.236 196.383C577.004 194.591 578.316 192.863 580.172 191.199C582.028 189.535 584.172 188.159 586.604 187.071C589.036 185.983 591.564 185.439 594.188 185.439C598.412 185.439 601.74 186.367 604.172 188.223C606.604 190.015 608.332 192.447 609.356 195.519C610.444 198.527 610.988 201.919 610.988 205.695V231.903C610.988 232.991 610.604 233.919 609.836 234.687C609.132 235.455 608.236 235.839 607.148 235.839C605.996 235.839 605.068 235.455 604.364 234.687C603.66 233.919 603.308 232.991 603.308 231.903V205.887C603.308 203.391 602.924 201.151 602.156 199.167C601.452 197.119 600.268 195.519 598.604 194.367C597.004 193.151 594.796 192.543 591.98 192.543C589.356 192.543 586.956 193.151 584.78 194.367C582.604 195.519 580.876 197.119 579.596 199.167C578.316 201.151 577.676 203.391 577.676 205.887V231.903C577.676 232.991 577.324 233.919 576.62 234.687C575.916 235.455 574.988 235.839 573.836 235.839C572.748 235.839 571.82 235.455 571.052 234.687C570.348 233.919 569.996 232.991 569.996 231.903V205.599C569.996 203.167 569.644 200.991 568.94 199.071C568.3 197.087 567.18 195.519 565.58 194.367C563.98 193.151 561.772 192.543 558.956 192.543C556.396 192.543 554.06 193.151 551.948 194.367C549.836 195.519 548.14 197.087 546.86 199.071C545.58 200.991 544.94 203.167 544.94 205.599V231.903C544.94 232.991 544.556 233.919 543.788 234.687C543.084 235.455 542.188 235.839 541.1 235.839C540.012 235.839 539.084 235.455 538.316 234.687C537.612 233.919 537.26 232.991 537.26 231.903V190.047C537.26 188.959 537.612 188.063 538.316 187.359C539.084 186.591 540.012 186.207 541.1 186.207C542.252 186.207 543.18 186.591 543.884 187.359C544.588 188.063 544.94 188.959 544.94 190.047V197.343L542.828 199.647C543.084 197.983 543.724 196.319 544.748 194.655C545.836 192.991 547.212 191.455 548.876 190.047C550.54 188.639 552.396 187.519 554.444 186.687C556.492 185.855 558.668 185.439 560.972 185.439ZM652.942 236.799C647.822 236.799 643.342 235.711 639.502 233.535C635.662 231.359 632.654 228.383 630.478 224.607C628.366 220.767 627.31 216.351 627.31 211.359C627.31 205.791 628.398 201.055 630.574 197.151C632.814 193.183 635.694 190.175 639.214 188.127C642.798 186.015 646.574 184.959 650.542 184.959C653.486 184.959 656.334 185.503 659.086 186.591C661.838 187.679 664.27 189.279 666.382 191.391C668.494 193.439 670.19 195.935 671.47 198.879C672.75 201.759 673.422 204.991 673.486 208.575C673.486 209.599 673.102 210.463 672.334 211.167C671.566 211.871 670.67 212.223 669.646 212.223H631.726L629.998 205.599H666.958L665.422 206.943V204.831C665.166 202.207 664.27 199.967 662.734 198.111C661.262 196.191 659.438 194.719 657.262 193.695C655.15 192.671 652.91 192.159 650.542 192.159C648.622 192.159 646.702 192.511 644.782 193.215C642.926 193.855 641.23 194.943 639.694 196.479C638.222 197.951 637.006 199.871 636.046 202.239C635.15 204.607 634.702 207.455 634.702 210.783C634.702 214.495 635.438 217.759 636.91 220.575C638.446 223.391 640.558 225.631 643.246 227.295C645.934 228.895 649.07 229.695 652.654 229.695C654.894 229.695 656.846 229.407 658.51 228.831C660.174 228.255 661.614 227.551 662.83 226.719C664.046 225.823 665.07 224.927 665.902 224.031C666.734 223.455 667.534 223.167 668.302 223.167C669.262 223.167 670.03 223.487 670.606 224.127C671.246 224.767 671.566 225.535 671.566 226.431C671.566 227.519 671.054 228.479 670.03 229.311C668.238 231.295 665.806 233.055 662.734 234.591C659.662 236.063 656.398 236.799 652.942 236.799ZM714.501 184.959C718.853 184.959 722.277 185.855 724.773 187.647C727.269 189.439 729.029 191.839 730.053 194.847C731.141 197.855 731.685 201.215 731.685 204.927V231.903C731.685 232.991 731.301 233.919 730.533 234.687C729.829 235.455 728.933 235.839 727.845 235.839C726.757 235.839 725.829 235.455 725.061 234.687C724.357 233.919 724.005 232.991 724.005 231.903V205.119C724.005 202.687 723.621 200.511 722.853 198.591C722.149 196.607 720.933 195.039 719.205 193.887C717.541 192.671 715.237 192.063 712.293 192.063C709.605 192.063 707.141 192.671 704.901 193.887C702.661 195.039 700.869 196.607 699.525 198.591C698.181 200.511 697.509 202.687 697.509 205.119V231.903C697.509 232.991 697.125 233.919 696.357 234.687C695.653 235.455 694.757 235.839 693.669 235.839C692.581 235.839 691.653 235.455 690.885 234.687C690.181 233.919 689.829 232.991 689.829 231.903V190.047C689.829 188.959 690.181 188.063 690.885 187.359C691.653 186.591 692.581 186.207 693.669 186.207C694.821 186.207 695.749 186.591 696.453 187.359C697.157 188.063 697.509 188.959 697.509 190.047V196.863L695.589 198.975C695.909 197.311 696.645 195.647 697.797 193.983C698.949 192.255 700.389 190.719 702.117 189.375C703.845 188.031 705.765 186.975 707.877 186.207C709.989 185.375 712.197 184.959 714.501 184.959ZM748.772 186.495H771.332C772.356 186.495 773.188 186.847 773.828 187.551C774.532 188.255 774.884 189.087 774.884 190.047C774.884 191.071 774.532 191.935 773.828 192.639C773.188 193.279 772.356 193.599 771.332 193.599H748.772C747.812 193.599 746.98 193.247 746.276 192.543C745.572 191.839 745.22 190.975 745.22 189.951C745.22 188.991 745.572 188.191 746.276 187.551C746.98 186.847 747.812 186.495 748.772 186.495ZM758.852 173.439C759.94 173.439 760.836 173.823 761.54 174.591C762.244 175.295 762.596 176.191 762.596 177.279V223.647C762.596 225.183 762.82 226.335 763.268 227.103C763.716 227.871 764.292 228.415 764.996 228.735C765.764 228.991 766.5 229.119 767.204 229.119C767.844 229.119 768.388 229.023 768.836 228.831C769.348 228.575 769.924 228.447 770.564 228.447C771.204 228.447 771.78 228.767 772.292 229.407C772.868 229.983 773.156 230.751 773.156 231.711C773.156 232.863 772.484 233.855 771.14 234.687C769.796 235.455 768.292 235.839 766.628 235.839C765.732 235.839 764.612 235.775 763.268 235.647C761.988 235.519 760.708 235.103 759.428 234.399C758.148 233.695 757.06 232.543 756.164 230.943C755.332 229.279 754.916 226.975 754.916 224.031V177.279C754.916 176.191 755.3 175.295 756.068 174.591C756.836 173.823 757.764 173.439 758.852 173.439Z" fill="url(#paint0_linear_319_38)"/>
<path d="M533.784 111.92C531.608 111.92 529.144 111.664 526.392 111.152C523.704 110.704 521.08 110 518.52 109.04C516.024 108.08 513.944 106.896 512.28 105.488L515.16 94.6399C517.336 97.5199 519.8 99.7279 522.552 101.264C525.304 102.736 528.12 103.728 531 104.24C533.88 104.688 536.568 104.848 539.064 104.72C540.984 103.76 542.36 102.448 543.192 100.784C544.088 99.1199 544.536 97.4559 544.536 95.7919C544.536 93.6799 543.896 91.8879 542.616 90.4159C541.4 88.9439 539.736 87.6319 537.624 86.4799C535.512 85.3279 533.048 84.0799 530.232 82.7359C527.416 81.3919 524.664 79.9199 521.976 78.3199C519.288 76.7199 517.016 74.7359 515.16 72.3679C513.368 69.9359 512.472 66.9599 512.472 63.4399C512.472 59.5999 513.56 56.3359 515.736 53.6479C517.912 50.8959 520.792 48.8159 524.376 47.4079C527.96 45.9999 531.832 45.2959 535.992 45.2959C538.168 45.2959 540.312 45.4559 542.424 45.7759C544.6 46.0959 546.616 46.5119 548.472 47.0239C550.328 47.4719 551.96 47.9519 553.368 48.4639L548.376 59.1199C545.688 56.2399 542.552 54.3199 538.968 53.3599C535.448 52.3999 531.928 52.0799 528.408 52.3999C526.872 53.2959 525.72 54.5119 524.952 56.0479C524.248 57.5839 523.896 59.1199 523.896 60.6559C523.896 62.6399 524.536 64.3359 525.816 65.7439C527.096 67.0879 528.824 68.3359 531 69.4879C533.24 70.6399 535.736 71.8559 538.488 73.1359C541.432 74.5439 544.248 76.0799 546.936 77.7439C549.688 79.4079 551.928 81.4559 553.656 83.8879C555.384 86.2559 556.248 89.2959 556.248 93.0079C556.248 97.0399 555.192 100.464 553.08 103.28C550.968 106.096 548.216 108.24 544.824 109.712C541.432 111.184 537.752 111.92 533.784 111.92ZM523.608 105.776L512.28 105.488C512.216 104.336 512.184 102.8 512.184 100.88C512.248 98.8959 512.376 96.8159 512.568 94.6399C512.824 92.3999 513.112 90.3519 513.432 88.4959H519.48L523.608 105.776ZM545.688 65.4559L542.808 49.9999L553.368 48.4639C553.496 49.7439 553.496 51.3439 553.368 53.2639C553.304 55.1839 553.176 57.1999 552.984 59.3119C552.792 61.4239 552.504 63.4719 552.12 65.4559H545.688ZM586.023 111.344C583.463 111.344 580.743 110.992 577.863 110.288C575.047 109.648 572.263 108.72 569.511 107.504L574.599 99.3439C575.495 100.24 576.743 101.168 578.343 102.128C580.007 103.024 581.959 103.696 584.199 104.144C586.503 104.592 588.967 104.656 591.591 104.336C593.895 102.736 595.655 100.4 596.871 97.3279C598.151 94.2559 598.791 91.0879 598.791 87.8239C598.791 85.1359 598.343 82.6079 597.447 80.2399C596.551 77.8719 595.303 75.9519 593.703 74.4799C592.103 73.0079 590.183 72.2719 587.943 72.2719C585.895 72.2719 583.751 72.8799 581.511 74.0959C579.335 75.2479 577.127 76.5919 574.887 78.1279L574.023 73.9999L589.479 63.5359C592.679 62.8319 595.559 62.9919 598.119 64.0159C600.743 64.9759 602.983 66.5439 604.839 68.7199C606.759 70.8319 608.199 73.3599 609.159 76.3039C610.183 79.1839 610.695 82.2879 610.695 85.6159C610.695 89.1999 610.119 92.5599 608.967 95.6959C607.815 98.7679 606.151 101.488 603.975 103.856C601.863 106.224 599.271 108.08 596.199 109.424C593.191 110.704 589.799 111.344 586.023 111.344ZM561.639 129.488L561.255 126.224C562.663 125.584 564.359 124.912 566.343 124.208C568.391 123.568 570.119 123.024 571.527 122.576L570.279 129.488H561.639ZM576.039 129.488L576.903 121.904C578.695 122.288 580.519 122.704 582.375 123.152C584.231 123.664 585.831 124.24 587.175 124.88L586.695 129.488H576.039ZM567.591 129.488V67.0879L574.599 63.0559L578.823 66.8959V129.488H567.591ZM560.487 70.8319L559.623 66.2239C561.799 65.2639 564.231 64.5279 566.919 64.0159C569.607 63.4399 572.199 63.1199 574.695 63.0559L575.655 66.0319L570.183 71.0239L560.487 70.8319ZM649.561 111.44C648.665 111.44 647.641 111.056 646.489 110.288C645.401 109.52 644.377 108.528 643.417 107.312C642.457 106.096 641.721 104.784 641.209 103.376L640.825 102.32V79.3759C640.825 76.3679 640.441 74.1279 639.673 72.6559C638.905 71.1839 637.753 70.0639 636.217 69.2959C634.681 69.3599 633.049 69.5519 631.321 69.8719C629.593 70.1279 628.217 70.4479 627.193 70.8319L625.849 81.0079L619.321 81.2959C618.553 79.5039 617.945 77.5199 617.497 75.3439C617.113 73.1039 616.921 70.9279 616.921 68.8159C618.585 67.9839 620.473 67.1839 622.585 66.4159C624.697 65.6479 626.841 64.9759 629.017 64.3999C631.257 63.7599 633.305 63.2799 635.161 62.9599C637.017 62.5759 638.489 62.3839 639.577 62.3839C641.113 62.3839 642.617 62.7359 644.089 63.4399C645.561 64.0799 646.905 64.9439 648.121 66.0319C649.337 67.0559 650.265 68.1119 650.905 69.1999C651.417 70.0319 651.737 71.0879 651.865 72.3679C651.993 73.6479 652.057 75.8879 652.057 79.0879V100.592C652.057 101.296 652.281 101.808 652.729 102.128C653.241 102.448 653.849 102.608 654.553 102.608C655.257 102.608 655.993 102.544 656.761 102.416C657.593 102.288 658.393 102.128 659.161 101.936L660.313 106.16L649.561 111.44ZM631.129 111.248C627.545 111.696 624.569 111.344 622.201 110.192C619.833 109.04 618.073 107.504 616.921 105.584C615.769 103.6 615.193 101.648 615.193 99.7279C615.193 97.8079 615.737 95.8879 616.825 93.9679C617.913 92.0479 619.705 90.4159 622.201 89.0719L643.417 88.4959L643.129 93.9679L641.209 93.8719C639.609 93.7439 637.945 93.7119 636.217 93.7759C634.553 93.8399 632.985 94.0639 631.513 94.4479C630.105 94.7679 628.921 95.3439 627.961 96.1759C627.065 96.9439 626.617 97.9999 626.617 99.3439C626.617 100.112 626.809 100.912 627.193 101.744C627.577 102.512 628.121 103.152 628.825 103.664C630.489 103.664 632.185 103.44 633.913 102.992C635.641 102.544 637.273 102.032 638.809 101.456C640.345 100.88 641.561 100.4 642.457 100.016L642.841 104.048L631.129 111.248ZM668.937 110V67.0879L675.945 63.0559L680.169 66.9919V110H668.937ZM676.617 87.5359L674.601 81.0079L690.153 64.4959C692.329 63.5999 694.409 63.2799 696.393 63.5359C698.377 63.7279 700.137 64.3679 701.673 65.4559C701.801 66.6719 701.801 68.0159 701.673 69.4879C701.609 70.9599 701.481 72.4639 701.289 73.9999C701.097 75.5359 700.841 77.0719 700.521 78.6079C700.201 80.0799 699.849 81.4559 699.465 82.7359H692.937L691.593 71.9839C689.993 72.8799 688.297 74.0639 686.505 75.5359C684.777 77.0079 683.049 78.7359 681.321 80.7199C679.593 82.7039 678.025 84.9759 676.617 87.5359ZM661.737 70.8319L660.873 66.2239C663.049 65.2639 665.481 64.5279 668.169 64.0159C670.857 63.4399 673.449 63.1199 675.945 63.0559L676.713 66.8959L671.433 71.0239L661.737 70.8319ZM662.313 110L661.929 106.736C663.273 106.032 664.937 105.328 666.921 104.624C668.969 103.92 670.697 103.408 672.105 103.088L670.953 110H662.313ZM677.673 110L678.537 102.608C679.689 102.672 681.001 102.864 682.473 103.184C684.009 103.44 685.481 103.76 686.889 104.144C688.297 104.464 689.417 104.88 690.249 105.392L689.865 110H677.673ZM712.252 110V43.4719L719.164 39.3439L723.484 43.1839V110H712.252ZM717.532 93.0079L716.764 90.9919L728.092 84.7519L742.588 67.0879L749.116 63.0559L752.572 68.4319L734.044 90.3199L717.532 93.0079ZM744.316 111.152C743.036 110.704 741.948 110.032 741.052 109.136C740.22 108.24 739.26 106.992 738.172 105.392L727.324 88.6879L736.732 84.4639L749.596 102.8C750.044 103.44 750.748 103.824 751.708 103.952C752.668 104.016 753.852 103.952 755.26 103.76L756.316 108.08L744.316 111.152ZM704.956 47.1199L704.092 42.5119C706.268 41.6159 708.7 40.9119 711.388 40.3999C714.076 39.8239 716.668 39.4719 719.164 39.3439L719.932 43.2799L714.652 47.4079L704.956 47.1199ZM732.604 70.8319L731.644 66.2239C733.372 65.5839 735.26 65.0399 737.308 64.5919C739.42 64.1439 741.5 63.7919 743.548 63.5359C745.66 63.2159 747.516 63.0559 749.116 63.0559L749.02 67.5679L744.7 70.3519L732.604 70.8319ZM705.436 110L705.052 106.736C706.46 106.032 708.156 105.328 710.14 104.624C712.188 103.92 713.916 103.408 715.324 103.088L714.076 110H705.436ZM718.204 110L718.684 102.992C720.412 103.184 722.172 103.472 723.964 103.856C725.756 104.24 727.26 104.752 728.476 105.392L727.996 110H718.204Z" fill="#DEE0E7"/>
<defs>
<linearGradient id="paint0_linear_319_38" x1="1.85565e-06" y1="193.935" x2="789.994" y2="182.459" gradientUnits="userSpaceOnUse">
<stop stop-color="#C70039"/>
<stop offset="1" stop-color="#FF5733"/>
</linearGradient>
</defs>
</svg>
