<svg width="97" height="97" viewBox="0 0 97 97" fill="none" xmlns="http://www.w3.org/2000/svg">
<circle cx="48.6206" cy="48.7604" r="48" fill="black" fill-opacity="0.2"/>
<path d="M68.6206 24.7604H28.6206C26.4106 24.7604 24.6206 26.5524 24.6206 28.7604V68.7604C24.6206 70.9684 26.4106 72.7604 28.6206 72.7604H68.6206C70.8286 72.7604 72.6206 70.9684 72.6206 68.7604V28.7604C72.6206 26.5524 70.8286 24.7604 68.6206 24.7604ZM60.2446 58.4664V58.4704C59.8466 59.4344 59.2106 60.2824 58.3986 60.9384C57.5586 61.6184 56.4946 62.1784 55.1866 62.5784C53.8786 62.9844 52.3246 63.1884 50.5206 63.1884H37.6566V35.1884H51.2626C53.7786 35.1884 55.7946 35.7544 57.3006 36.9084C58.8206 38.0684 59.5786 39.7964 59.5786 42.1284C59.5786 43.5384 59.2326 44.7484 58.5406 45.7484C57.8526 46.7424 56.8606 47.5204 55.5806 48.0604V48.1524C57.2886 48.5124 58.6106 49.3244 59.4786 50.5844C60.3506 51.8444 60.7946 53.4344 60.7946 55.3584C60.7946 56.4344 60.5866 57.4584 60.1946 58.4144L60.2446 58.4664Z" fill="#543B79"/>
<path d="M54.6946 51.5704C53.8746 50.8204 52.7226 50.4544 51.2326 50.4544H42.5906V59.1904H51.2586C52.7366 59.1904 53.8986 58.8064 54.7186 58.0304C55.5386 57.2604 55.9586 56.1624 55.9586 54.7504C55.9446 53.3704 55.5386 52.3024 54.7186 51.5704H54.6946V51.5704ZM53.4846 45.9244H53.4946C54.2866 45.2524 54.6746 44.2904 54.6746 43.0364C54.6746 41.6284 54.3226 40.6284 53.6126 40.0564C52.9086 39.4864 51.8926 39.1904 50.5566 39.1904H42.5566V46.9164H50.5566C51.7246 46.9164 52.7186 46.5764 53.4846 45.9244Z" fill="#543B79"/>
<path d="M48.6206 35.1884H37.6566V63.1884H48.6206V59.1904H42.5906V50.4544H48.6206V46.9164H42.5586V39.1904H48.6206V35.1884Z" fill="#DEDEDE"/>
<path d="M48.6206 24.7604H28.6206C26.4106 24.7604 24.6206 26.5524 24.6206 28.7604V68.7604C24.6206 70.9684 26.4106 72.7604 28.6206 72.7604H48.6206V63.1884H37.6566V35.1884H48.6206V24.7604Z" fill="#493369"/>
<path d="M48.6206 50.4543H42.5906V59.1903H48.6206V50.4543Z" fill="#493369"/>
<path d="M48.6206 39.1904H42.5586V46.9164H48.6206V39.1904Z" fill="#493369"/>
</svg>
