<svg width="96" height="97" viewBox="0 0 96 97" fill="none" xmlns="http://www.w3.org/2000/svg">
<path d="M31.0553 67.2595L27.285 24.9703H68.715L64.941 67.2531L47.9749 71.9567L31.0553 67.2595V67.2595Z" fill="#1572B6"/>
<path d="M48.0004 68.3616L61.71 64.5606L64.9354 28.4279H48.0004V68.3616Z" fill="#33A9DC"/>
<path d="M48.0004 43.7492H54.8636L55.3376 38.4381H48.0004V33.2515H61.0061L60.8816 34.6431L59.6066 48.9358H48.0004V43.7492V43.7492Z" fill="white"/>
<path d="M48.0311 57.2193L48.0082 57.226L42.2321 55.6664L41.8627 51.5298H36.657L37.3834 59.6737L48.0075 62.6223L48.0311 62.6155V57.2193V57.2193Z" fill="#EBEBEB"/>
<path d="M54.4226 48.7166L53.7979 55.6623L48.0131 57.2238V62.6201L58.6459 59.6733L58.7239 58.7969L59.6261 48.7166H54.4226Z" fill="white"/>
<path d="M48.018 33.2515V38.4381H35.49L35.3861 37.2726L35.1499 34.6431L35.0258 33.2515H48.018V33.2515ZM48.0004 43.75V48.9366H42.297L42.1931 47.7711L41.9565 45.1416L41.8328 43.75H48.0004V43.75Z" fill="#EBEBEB"/>
<circle cx="48" cy="48.4635" r="48" fill="black" fill-opacity="0.2"/>
</svg>
