<svg width="96" height="97" viewBox="0 0 96 97" fill="none" xmlns="http://www.w3.org/2000/svg">
<circle cx="48" cy="48.2102" r="48" fill="black" fill-opacity="0.2"/>
<path opacity="0.65" d="M48.0027 24.8457C34.7411 24.8403 24 35.5761 24 48.8269C24 59.3053 30.7192 68.2125 40.0769 71.4836C41.3371 71.8 41.144 70.9045 41.144 70.2931V66.1372C33.8671 66.9898 33.5721 62.1743 33.0841 61.3699C32.0974 59.6861 29.7647 59.2571 30.4618 58.4527C32.1189 57.6 33.8081 58.6672 35.7654 61.5576C37.1811 63.6543 39.9428 63.3004 41.3424 62.9518C41.6481 61.6916 42.3023 60.5655 43.2032 59.6914C35.6635 58.3401 32.5211 53.739 32.5211 48.2692C32.5211 45.6148 33.3952 43.1748 35.1112 41.2068C34.0172 37.9625 35.213 35.1847 35.3739 34.7717C38.4896 34.4929 41.7285 37.0026 41.9806 37.201C43.7502 36.7237 45.7719 36.4717 48.0349 36.4717C50.3086 36.4717 52.3356 36.7344 54.1213 37.2171C54.7273 36.7559 57.7303 34.6001 60.6261 34.8629C60.7816 35.2758 61.9506 37.9893 60.921 41.1907C62.6585 43.1641 63.5433 45.6255 63.5433 48.2853C63.5433 53.7658 60.3794 58.3722 52.8182 59.7021C53.4659 60.3391 53.9801 61.0986 54.3309 61.9365C54.6817 62.7743 54.862 63.6737 54.8614 64.5821V70.6149C54.9043 71.0975 54.8614 71.5748 55.6657 71.5748C65.1628 68.3734 72 59.4018 72 48.8323C72 35.5761 61.2535 24.8457 48.0027 24.8457Z" fill="#484A53"/>
</svg>
