<svg width="97" height="97" viewBox="0 0 97 97" fill="none" xmlns="http://www.w3.org/2000/svg">
<circle cx="48.2449" cy="48.2283" r="48" fill="black" fill-opacity="0.2"/>
<path d="M80.9136 45.2049L51.2754 15.5684C49.5697 13.8616 46.8015 13.8616 45.0931 15.5684L38.9399 21.7233L46.7467 29.5301C48.5615 28.9176 50.6414 29.3284 52.0874 30.7744C53.5409 32.2295 53.949 34.3272 53.3204 36.1479L60.8444 43.6729C62.6646 43.0454 64.7655 43.4509 66.2185 44.907C68.2511 46.938 68.2511 50.2306 66.2185 52.2627C64.1858 54.2953 60.8944 54.2953 58.8607 52.2627C57.3324 50.7333 56.9544 48.4883 57.7287 46.6052L50.7124 39.5883L50.7113 58.0546C51.2071 58.2992 51.6744 58.6262 52.0874 59.0375C54.1195 61.0685 54.1195 64.36 52.0874 66.3953C50.0553 68.4263 46.7617 68.4263 44.7318 66.3953C42.7002 64.3605 42.5335 61.0691 44.5645 59.0375C45.0668 58.5358 45.562 58.1567 46.0998 57.9029V39.2657C45.562 39.0119 45.0673 38.6355 44.564 38.1305C43.0256 36.5926 42.7379 34.3342 43.5273 32.4435L35.8737 24.7469L15.5722 45.0678C13.8649 46.7762 13.8757 49.5444 15.583 51.2517L45.226 80.8883C46.9322 82.595 49.7026 82.595 51.4115 80.8883L80.9114 51.3894C82.6187 49.6815 82.6203 46.9117 80.9136 45.2049Z" fill="#F34F29"/>
</svg>
