<svg width="96" height="97" viewBox="0 0 96 97" fill="none" xmlns="http://www.w3.org/2000/svg">
<circle cx="48" cy="48.2102" r="48" fill="black" fill-opacity="0.2"/>
<path opacity="0.65" d="M48.0032 20.7102C32.3944 20.7039 19.7521 33.3399 19.7521 48.9361C19.7521 61.2691 27.6606 71.7528 38.6745 75.6029C40.1577 75.9753 39.9305 74.9212 39.9305 74.2017V69.3102C31.3656 70.3137 31.0184 64.6458 30.4441 63.6991C29.2827 61.7172 26.5371 61.2123 27.3577 60.2655C29.308 59.262 31.2961 60.518 33.5999 63.92C35.2662 66.3879 38.5167 65.9713 40.1641 65.561C40.5238 64.0778 41.2938 62.7523 42.3542 61.7235C33.48 60.133 29.7813 54.7176 29.7813 48.2796C29.7813 45.1554 30.8101 42.2835 32.8299 39.9672C31.5423 36.1486 32.9498 32.8791 33.1392 32.3931C36.8062 32.0649 40.6185 35.0188 40.9151 35.2523C42.998 34.6906 45.3775 34.3939 48.041 34.3939C50.7172 34.3939 53.103 34.7032 55.2048 35.2713C55.918 34.7285 59.4526 32.1912 62.8609 32.5004C63.0439 32.9864 64.4198 36.1801 63.208 39.9482C65.253 42.2709 66.2944 45.168 66.2944 48.2986C66.2944 54.7491 62.5705 60.1708 53.6711 61.7361C54.4333 62.4858 55.0386 63.3798 55.4515 64.3659C55.8643 65.3521 56.0766 66.4107 56.0758 67.4798V74.5804C56.1263 75.1485 56.0758 75.7102 57.0226 75.7102C68.2005 71.9421 76.2479 61.3827 76.2479 48.9424C76.2479 33.3399 63.5993 20.7102 48.0032 20.7102Z" fill="#484A53"/>
</svg>
