<svg width="96" height="97" viewBox="0 0 96 97" fill="none" xmlns="http://www.w3.org/2000/svg">
<circle cx="48" cy="48.2102" r="48" fill="black" fill-opacity="0.2"/>
<path opacity="0.65" d="M48.0028 24.2102C34.3805 24.2047 23.3473 35.2325 23.3473 48.8437C23.3473 59.607 30.2493 68.7565 39.8614 72.1166C41.1558 72.4416 40.9575 71.5217 40.9575 70.8937V66.6247C33.4827 67.5005 33.1797 62.554 32.6785 61.7278C31.6649 59.9981 29.2688 59.5575 29.9849 58.7312C31.6869 57.8554 33.4221 58.9515 35.4326 61.9206C36.8869 64.0743 39.7237 63.7108 41.1614 63.3527C41.4753 62.0583 42.1474 60.9015 43.0728 60.0036C35.328 58.6155 32.1001 53.8893 32.1001 48.2708C32.1001 45.5442 32.9979 43.0378 34.7606 41.0163C33.6369 37.6837 34.8653 34.8304 35.0305 34.4062C38.2309 34.1198 41.558 36.6977 41.8168 36.9015C43.6346 36.4113 45.7113 36.1524 48.0358 36.1524C50.3714 36.1524 52.4535 36.4223 54.2878 36.918C54.9103 36.4443 57.995 34.2299 60.9695 34.4999C61.1292 34.924 62.33 37.7112 61.2724 40.9997C63.0571 43.0268 63.966 45.5552 63.966 48.2873C63.966 53.9169 60.7161 58.6486 52.9493 60.0147C53.6145 60.6689 54.1427 61.4491 54.5031 62.3098C54.8634 63.1704 55.0487 64.0942 55.048 65.0273V71.2242C55.092 71.72 55.048 72.2102 55.8742 72.2102C65.6296 68.9217 72.6527 59.7062 72.6527 48.8492C72.6527 35.2325 61.614 24.2102 48.0028 24.2102Z" fill="#484A53"/>
</svg>
