<svg width="96" height="97" viewBox="0 0 96 97" fill="none" xmlns="http://www.w3.org/2000/svg">
<circle cx="47.9993" cy="48.8252" r="48" fill="black" fill-opacity="0.2"/>
<path d="M23.9993 24.8252V72.8252H71.9993V24.8252H23.9993ZM49.389 65.7262C48.6805 67.1658 47.328 68.1116 45.7609 68.5682C43.3529 69.1211 41.0496 68.8059 39.3362 67.7775C38.1896 67.074 37.2941 65.9911 36.6862 64.7435L40.3419 62.5048C40.3738 62.5183 40.4698 62.6918 40.5981 62.9161C41.0642 63.6971 41.4663 64.2501 42.2565 64.6383C43.033 64.9033 44.7376 65.0726 45.3957 63.7063C45.7978 63.0113 45.6699 60.7772 45.6699 58.3054C45.6695 54.4212 45.6876 50.5532 45.6876 46.7132H50.1838C50.1838 50.9372 50.2069 54.9377 50.1838 59.0596C50.1934 61.5863 50.4127 63.8388 49.389 65.7262ZM68.0414 64.4559C66.4785 69.802 57.7648 69.9755 54.2827 66.4435C53.5469 65.6121 53.0857 65.1778 52.6468 64.2182C54.4973 63.1538 54.4973 63.1538 56.2979 62.112C57.2759 63.6153 58.1803 64.4421 59.8073 64.7804C62.0145 65.05 64.2352 64.2916 63.7371 61.9472C63.2253 60.0326 59.2174 59.5668 56.4899 57.5193C53.7209 55.6596 53.0719 51.1407 55.3475 48.5587C56.1059 47.6037 57.3992 46.891 58.7563 46.5485L60.1725 46.3653C62.8916 46.3104 64.5911 47.0285 65.8388 48.4216C66.1859 48.7734 66.4693 49.1527 66.9992 49.9749C65.5508 50.898 65.5554 50.8892 63.4806 52.2324C63.0375 51.2778 62.3021 50.6788 61.5249 50.4184C60.3184 50.0528 58.797 50.4503 58.4813 51.7252C58.3719 52.118 58.3945 52.4836 58.5685 53.1325C59.0573 54.2473 60.6978 54.7319 62.1693 55.4081C66.4052 57.1261 67.8356 58.9682 68.1873 61.1608C68.526 63.0486 68.1055 64.2731 68.0414 64.4559V64.4559Z" fill="#F0DB4F"/>
</svg>
