<svg width="80" height="81" viewBox="0 0 80 81" fill="none" xmlns="http://www.w3.org/2000/svg">
<circle cx="40" cy="40.5" r="40" fill="black" fill-opacity="0.2"/>
<path fill-rule="evenodd" clip-rule="evenodd" d="M45.3132 21.8863L24.5579 23.4146C22.885 23.5592 22.3016 24.6499 22.3016 25.9576V48.6425C22.3016 49.661 22.6656 50.5323 23.5395 51.6966L28.4185 58.0217C29.2201 59.0401 29.9481 59.2583 31.4788 59.186L55.5812 57.7313C57.6193 57.5867 58.2027 56.6405 58.2027 55.0412V29.5215C58.2027 28.6938 57.8748 28.4557 56.91 27.7514C56.8551 27.7112 56.8002 27.6709 56.7455 27.6305L50.12 22.977C48.5181 21.8152 47.8624 21.6681 45.3132 21.8863ZM32.0248 29.1026C30.0565 29.2348 29.6102 29.2647 28.4921 28.3584L25.6499 26.1047C25.3607 25.813 25.5066 25.449 26.2333 25.3767L46.1871 23.9232C47.8612 23.7773 48.735 24.3595 49.3907 24.8681L52.8138 27.34C52.9596 27.4136 53.3224 27.8486 52.8861 27.8486L32.2791 29.0852L32.0248 29.1026ZM29.7299 54.823V33.1577C29.7299 32.2116 30.0204 31.7753 30.8942 31.7017L54.5602 30.3205C55.363 30.2482 55.727 30.7568 55.727 31.7017V53.2224C55.727 54.1686 55.5812 54.9689 54.2685 55.0412L31.6222 56.3501C30.3121 56.4224 29.7299 55.9873 29.7299 54.823ZM52.087 34.3195C52.2316 34.974 52.087 35.6284 51.4301 35.7032L50.3381 35.9189V51.9148C49.3907 52.4234 48.5181 52.7138 47.7901 52.7138C46.6246 52.7138 46.3317 52.3498 45.4591 51.2603L38.3212 40.0637V50.8963L40.58 51.4062C40.58 51.4062 40.58 52.7151 38.7575 52.7151L33.7339 53.0055C33.5893 52.7138 33.7339 51.9883 34.245 51.8425L35.5539 51.4797V37.1567L33.7339 37.0096C33.5893 36.3552 33.952 35.4103 34.973 35.338L40.3619 34.974L47.7901 46.3177V36.2829L45.8954 36.066C45.7508 35.2644 46.3317 34.6835 47.0609 34.6112L52.087 34.3195Z" fill="white"/>
</svg>
