<svg width="80" height="81" viewBox="0 0 80 81" fill="none" xmlns="http://www.w3.org/2000/svg">
<circle cx="40" cy="40.5" r="40" fill="black" fill-opacity="0.2"/>
<g clip-path="url(#clip0_351_43)">
<path d="M45.3159 39.6649C42.3818 38.0605 39.5725 36.5855 36.7008 35.0454V44.2583C39.7227 42.5773 42.9079 41.0379 45.3283 39.6649H45.3159Z" fill="white"/>
<path d="M45.3159 39.6649C42.3818 38.0605 36.7008 35.0454 36.7008 35.0454L44.2751 40.2548C44.2757 40.2548 42.8954 41.0379 45.3159 39.6649Z" fill="#E8E0E0"/>
<path d="M37.253 51.4701C31.1588 51.3553 29.0773 51.252 27.7979 50.9823C26.9323 50.8031 26.1801 50.4052 25.6286 49.828C25.2023 49.3912 24.8633 48.7248 24.6003 47.8002C24.3747 47.0298 24.2868 46.3889 24.1615 44.8234C23.9698 41.2901 23.9241 38.4014 24.1615 35.1736C24.3575 33.3912 24.4524 31.2752 25.7538 30.0408C26.3683 29.463 27.0831 29.0912 27.8858 28.9375C29.1396 28.6939 34.4817 28.5013 40.0119 28.5013C45.5297 28.5013 50.8836 28.6939 52.1387 28.9375C53.1414 29.1301 54.0818 29.7073 54.634 30.4515C55.8214 32.3627 55.8421 34.7393 55.9627 36.5983C56.0125 37.484 56.0125 42.5136 55.9627 43.3993C55.7751 46.3373 55.6243 47.3767 55.198 48.4545C54.9344 49.1349 54.7094 49.4939 54.3199 49.8918C53.7091 50.5042 52.9304 50.9115 52.0876 51.0595C46.8139 51.4653 42.3356 51.5534 37.253 51.4701ZM45.329 39.665C42.395 38.0605 39.5857 36.5727 36.714 35.0327V44.2462C39.7359 42.5652 42.9216 41.0252 45.3415 39.6522L45.329 39.665Z" fill="#CD201F"/>
</g>
<defs>
<clipPath id="clip0_351_43">
<rect width="32" height="23" fill="white" transform="translate(24 28.5)"/>
</clipPath>
</defs>
</svg>
